<svg width="100" height="33" viewBox="0 0 100 33" fill="none" xmlns="http://www.w3.org/2000/svg">
<g clip-path="url(#clip0)">
<path d="M91.6163 -1.48203e-05H8.38819C8.08482 -1.48203e-05 7.78508 -1.48203e-05 7.48251 0.00163518C7.22922 0.00328518 6.97796 0.00807843 6.72224 0.0121127C6.16671 0.0186317 5.61249 0.0673681 5.06438 0.157898C4.51705 0.2504 3.98687 0.424791 3.49176 0.675173C2.99725 0.927674 2.54541 1.25577 2.15262 1.64757C1.75777 2.03826 1.42863 2.48985 1.17786 2.98497C0.926399 3.4791 0.752034 4.00861 0.660789 4.55521C0.568676 5.10111 0.51911 5.65331 0.512534 6.20686C0.504856 6.4598 0.504046 6.71359 0.5 6.96657V26.0358C0.504046 26.292 0.504856 26.5402 0.512534 26.7964C0.519112 27.3499 0.568678 27.9021 0.660789 28.448C0.751782 28.9949 0.926157 29.5247 1.17786 30.019C1.42852 30.5125 1.7577 30.9623 2.15262 31.3508C2.54392 31.7443 2.99606 32.0727 3.49176 32.3232C3.98686 32.5743 4.51699 32.7497 5.06438 32.8436C5.61258 32.9335 6.16675 32.9822 6.72224 32.9895C6.97796 32.9951 7.22922 32.9983 7.48251 32.9983C7.78507 33 8.08483 33 8.38819 33H91.6163C91.9136 33 92.2157 33 92.5131 32.9983C92.7652 32.9983 93.0237 32.9951 93.2758 32.9895C93.8302 32.9826 94.3833 32.9338 94.9304 32.8436C95.4796 32.7491 96.0116 32.5737 96.5091 32.3232C97.0043 32.0725 97.4561 31.7442 97.847 31.3508C98.2409 30.9608 98.5708 30.5113 98.8246 30.019C99.0744 29.5243 99.2471 28.9946 99.3368 28.448C99.429 27.902 99.4803 27.35 99.4903 26.7964C99.4935 26.5402 99.4935 26.292 99.4935 26.0358C99.5 25.7361 99.5 25.438 99.5 25.1334V7.86729C99.5 7.56517 99.5 7.26546 99.4935 6.96657C99.4935 6.71359 99.4935 6.4598 99.4903 6.20682C99.4804 5.65323 99.429 5.10115 99.3368 4.55517C99.2469 4.00889 99.0742 3.47943 98.8246 2.98493C98.3139 1.99252 97.5041 1.18471 96.5091 0.675099C96.0116 0.425328 95.4795 0.250984 94.9304 0.157824C94.3834 0.066895 93.8303 0.0181416 93.2758 0.0119972C93.0237 0.00797118 92.7652 0.00313668 92.5131 0.00152793C92.2157 -0.00012207 91.9136 -0.00012207 91.6163 -0.00012207V-1.48203e-05Z" fill="#A6A6A6"/>
<path d="M7.48652 32.2781C7.23445 32.2781 6.98847 32.2749 6.73838 32.2693C6.2203 32.2626 5.70343 32.2176 5.19201 32.1347C4.71514 32.0528 4.25318 31.9005 3.82137 31.6827C3.39351 31.4667 3.00328 31.1836 2.66561 30.844C2.32305 30.5085 2.03785 30.1193 1.82132 29.6919C1.6024 29.2617 1.4509 28.8007 1.37209 28.3247C1.28698 27.8133 1.24093 27.2962 1.23434 26.7778C1.2291 26.6038 1.22223 26.0245 1.22223 26.0245V6.96657C1.22223 6.96657 1.22954 6.39615 1.23438 6.22857C1.24069 5.71104 1.28647 5.19473 1.37133 4.68412C1.45029 4.20687 1.60191 3.74446 1.82094 3.31288C2.03668 2.88579 2.32029 2.49632 2.66078 2.15957C3.00089 1.81963 3.39238 1.53499 3.82096 1.31604C4.25178 1.09896 4.71287 0.947692 5.18878 0.867286C5.70188 0.783603 6.22054 0.73836 6.74042 0.731936L7.48692 0.721863H92.509L93.2644 0.73234C93.7796 0.738445 94.2935 0.783284 94.8019 0.866477C95.2826 0.947892 95.7485 1.10022 96.1843 1.31845C97.0429 1.7597 97.7415 2.4578 98.1822 3.3149C98.3978 3.74349 98.547 4.20213 98.625 4.67525C98.7109 5.19006 98.7589 5.71042 98.7688 6.2322C98.7712 6.46584 98.7712 6.71681 98.7712 6.96657C98.7777 7.27594 98.7777 7.57041 98.7777 7.86729V25.1334C98.7777 25.4332 98.7777 25.7256 98.7712 26.0205C98.7712 26.2888 98.7712 26.5345 98.768 26.7875C98.7583 27.3 98.7111 27.811 98.6266 28.3166C98.5494 28.796 98.3987 29.2607 98.1798 29.6944C97.9618 30.1171 97.6782 30.5029 97.3396 30.8376C97.0016 31.179 96.6107 31.4638 96.1819 31.6811C95.7473 31.9006 95.2821 32.0535 94.8019 32.1347C94.2905 32.218 93.7736 32.263 93.2555 32.2693C93.0132 32.2749 92.7594 32.2781 92.513 32.2781L91.6162 32.2798L7.48652 32.2781Z" fill="black"/>
<path d="M20.9917 16.748C21.0006 16.0594 21.184 15.3843 21.5249 14.7854C21.8658 14.1865 22.353 13.6833 22.9413 13.3226C22.5676 12.7903 22.0745 12.3523 21.5014 12.0433C20.9282 11.7343 20.2906 11.5628 19.6394 11.5425C18.2501 11.3971 16.9033 12.3715 16.1953 12.3715C15.4737 12.3715 14.3837 11.5569 13.21 11.581C12.4507 11.6055 11.7108 11.8256 11.0623 12.22C10.4138 12.6144 9.8788 13.1696 9.50943 13.8315C7.90941 16.594 9.10288 20.6538 10.6356 22.8868C11.4024 23.9802 12.2986 25.2016 13.4713 25.1583C14.6188 25.1108 15.0474 24.4286 16.4326 24.4286C17.8049 24.4286 18.207 25.1583 19.4035 25.1307C20.6349 25.1108 21.4107 24.0324 22.1506 22.9287C22.7016 22.1496 23.1256 21.2885 23.4068 20.3774C22.6914 20.0756 22.0809 19.5706 21.6515 18.9252C21.222 18.2798 20.9925 17.5226 20.9917 16.748Z" fill="white"/>
<path d="M18.7318 10.074C19.4032 9.27025 19.7339 8.23721 19.6538 7.19421C18.6281 7.30165 17.6806 7.79051 17.0001 8.56339C16.6674 8.94097 16.4126 9.38023 16.2503 9.85606C16.0879 10.3319 16.0212 10.835 16.0539 11.3365C16.567 11.3418 17.0745 11.2309 17.5384 11.0122C18.0022 10.7935 18.4103 10.4727 18.7318 10.074Z" fill="white"/>
<path d="M35.4974 22.3901H31.5813L30.6409 25.1592H28.9822L32.6914 14.9143H34.4147L38.1239 25.1592H36.437L35.4974 22.3901ZM31.9869 21.1123H35.091L33.5608 16.6183H33.518L31.9869 21.1123Z" fill="white"/>
<path d="M46.1345 21.4249C46.1345 23.7461 44.8887 25.2373 43.0086 25.2373C42.5324 25.2622 42.0587 25.1528 41.642 24.9217C41.2252 24.6906 40.882 24.3471 40.6519 23.9305H40.6163V27.6302H39.0789V17.6899H40.5671V18.9322H40.5954C40.8361 18.5177 41.185 18.176 41.6049 17.9435C42.0249 17.7109 42.5002 17.5963 42.9804 17.6117C44.8814 17.6117 46.1345 19.1103 46.1345 21.4249ZM44.5542 21.4249C44.5542 19.9127 43.7705 18.9185 42.5748 18.9185C41.4 18.9185 40.6099 19.9337 40.6099 21.4249C40.6099 22.9299 41.4 23.9378 42.5748 23.9378C43.7705 23.9378 44.5542 22.9509 44.5542 21.4249Z" fill="white"/>
<path d="M54.3786 21.4249C54.3786 23.7461 53.1328 25.2373 51.2527 25.2373C50.7765 25.2622 50.3028 25.1528 49.886 24.9217C49.4692 24.6906 49.1261 24.3471 48.896 23.9305H48.8604V27.6301H47.3229V17.6899H48.8111V18.9322H48.8394C49.0801 18.5177 49.429 18.176 49.849 17.9434C50.269 17.7109 50.7443 17.5963 51.2244 17.6117C53.1255 17.6117 54.3786 19.1103 54.3786 21.4249ZM52.7983 21.4249C52.7983 19.9127 52.0146 18.9185 50.8189 18.9185C49.6441 18.9185 48.854 19.9336 48.854 21.4249C48.854 22.9299 49.6441 23.9378 50.8189 23.9378C52.0146 23.9378 52.7983 22.9509 52.7983 21.4249H52.7983Z" fill="white"/>
<path d="M59.8272 22.3047C59.9411 23.3207 60.9309 23.9877 62.2833 23.9877C63.5792 23.9877 64.5116 23.3206 64.5116 22.4046C64.5116 21.6094 63.9493 21.1333 62.6178 20.807L61.2863 20.4871C59.3998 20.0327 58.524 19.1529 58.524 17.7253C58.524 15.9577 60.0688 14.7435 62.2623 14.7435C64.4332 14.7435 65.9214 15.9577 65.9715 17.7253H64.4195C64.3265 16.7029 63.479 16.0858 62.2405 16.0858C61.0019 16.0858 60.1544 16.7102 60.1544 17.619C60.1544 18.3432 60.6957 18.7694 62.0199 19.0957L63.1518 19.3729C65.2597 19.8699 66.1355 20.7143 66.1355 22.2128C66.1355 24.1295 64.6045 25.3299 62.1694 25.3299C59.891 25.3299 58.3527 24.1577 58.2534 22.3047L59.8272 22.3047Z" fill="white"/>
<path d="M69.4537 15.9222V17.6899H70.878V18.904H69.4537V23.0218C69.4537 23.6614 69.7389 23.9595 70.365 23.9595C70.5341 23.9566 70.7029 23.9448 70.8708 23.9241V25.131C70.5892 25.1834 70.3031 25.2072 70.0168 25.2019C68.5003 25.2019 67.9089 24.6339 67.9089 23.1853V18.904H66.8198V17.6899H67.9089V15.9222H69.4537Z" fill="white"/>
<path d="M71.7029 21.4249C71.7029 19.0748 73.0909 17.598 75.2554 17.598C77.4271 17.598 78.8086 19.0748 78.8086 21.4249C78.8086 23.7815 77.4344 25.2518 75.2554 25.2518C73.0772 25.2518 71.7029 23.7815 71.7029 21.4249ZM77.2421 21.4249C77.2421 19.8128 76.5012 18.8613 75.2554 18.8613C74.0096 18.8613 73.2695 19.82 73.2695 21.4249C73.2695 23.0435 74.0096 23.9877 75.2554 23.9877C76.5012 23.9877 77.242 23.0435 77.242 21.4249H77.2421Z" fill="white"/>
<path d="M80.0763 17.6899H81.5427V18.9613H81.5783C81.6775 18.5642 81.9107 18.2133 82.2388 17.9675C82.5669 17.7218 82.9699 17.5962 83.3799 17.6118C83.5571 17.6112 83.7338 17.6303 83.9067 17.669V19.1031C83.683 19.0349 83.4497 19.0036 83.2159 19.0104C82.9925 19.0014 82.7699 19.0406 82.5632 19.1255C82.3565 19.2104 82.1706 19.3389 82.0184 19.5021C81.8662 19.6654 81.7513 19.8596 81.6814 20.0713C81.6116 20.2831 81.5885 20.5074 81.6138 20.7289V25.1592H80.0763L80.0763 17.6899Z" fill="white"/>
<path d="M90.9954 22.9654C90.7886 24.3213 89.4644 25.2518 87.7702 25.2518C85.5912 25.2518 84.2387 23.796 84.2387 21.4604C84.2387 19.1175 85.5984 17.598 87.7055 17.598C89.7778 17.598 91.081 19.0176 91.081 21.2823V21.8076H85.7907V21.9003C85.7663 22.1752 85.8008 22.4521 85.892 22.7126C85.9831 22.9732 86.1288 23.2115 86.3194 23.4116C86.51 23.6117 86.7411 23.769 86.9973 23.8732C87.2536 23.9774 87.5292 24.0261 87.8057 24.0159C88.169 24.0499 88.5336 23.966 88.8453 23.7767C89.157 23.5874 89.399 23.3028 89.5355 22.9653L90.9954 22.9654ZM85.798 20.7361H89.5427C89.5565 20.4889 89.519 20.2416 89.4324 20.0096C89.3458 19.7776 89.212 19.5659 89.0395 19.3879C88.867 19.2099 88.6594 19.0694 88.4299 18.9752C88.2003 18.8809 87.9537 18.835 87.7055 18.8404C87.4551 18.8389 87.207 18.8868 86.9753 18.9815C86.7436 19.0762 86.533 19.2156 86.3557 19.3919C86.1783 19.5681 86.0377 19.7777 85.942 20.0084C85.8463 20.2391 85.7974 20.4864 85.798 20.7361V20.7361Z" fill="white"/>
<path d="M31.7942 7.20316C32.1165 7.18009 32.44 7.22865 32.7412 7.34533C33.0424 7.46201 33.314 7.64391 33.5362 7.8779C33.7584 8.11189 33.9257 8.39214 34.0262 8.69844C34.1266 9.00474 34.1576 9.32945 34.117 9.64915C34.117 11.2218 33.2646 12.1258 31.7942 12.1258H30.0111V7.20316H31.7942ZM30.7778 11.4296H31.7086C31.9389 11.4434 32.1694 11.4057 32.3833 11.3194C32.5972 11.2331 32.7891 11.1003 32.945 10.9307C33.101 10.7611 33.217 10.559 33.2847 10.339C33.3525 10.1191 33.3702 9.88682 33.3365 9.65918C33.3677 9.43244 33.3482 9.20163 33.2795 8.98329C33.2107 8.76494 33.0944 8.56446 32.9388 8.39622C32.7832 8.22797 32.5922 8.09613 32.3795 8.01014C32.1668 7.92414 31.9377 7.88612 31.7086 7.89881H30.7778V11.4296Z" fill="white"/>
<path d="M34.9831 10.2666C34.9597 10.0225 34.9877 9.77617 35.0653 9.54347C35.143 9.31076 35.2685 9.0968 35.4339 8.91532C35.5993 8.73383 35.801 8.58882 36.0259 8.4896C36.2508 8.39037 36.494 8.33911 36.7399 8.33911C36.9859 8.33911 37.2291 8.39037 37.454 8.4896C37.6789 8.58882 37.8805 8.73383 38.0459 8.91532C38.2114 9.0968 38.3369 9.31076 38.4146 9.54347C38.4922 9.77617 38.5202 10.0225 38.4968 10.2666C38.5206 10.511 38.493 10.7577 38.4155 10.9907C38.3381 11.2238 38.2126 11.4382 38.0472 11.62C37.8817 11.8019 37.6799 11.9472 37.4548 12.0466C37.2297 12.1461 36.9862 12.1974 36.7399 12.1974C36.4937 12.1974 36.2502 12.1461 36.0251 12.0466C35.7999 11.9472 35.5982 11.8019 35.4327 11.62C35.2672 11.4382 35.1418 11.2238 35.0643 10.9907C34.9869 10.7577 34.9592 10.511 34.9831 10.2666ZM37.7405 10.2666C37.7405 9.46137 37.3778 8.99046 36.7411 8.99046C36.1021 8.99046 35.7426 9.46137 35.7426 10.2666C35.7426 11.0783 36.1021 11.5456 36.7411 11.5456C37.3778 11.5456 37.7406 11.0751 37.7406 10.2666H37.7405Z" fill="white"/>
<path d="M43.1674 12.1257H42.4047L41.6348 9.38965H41.5766L40.8099 12.1257H40.0545L39.0276 8.41077H39.7733L40.4407 11.2455H40.4956L41.2615 8.41077H41.9668L42.7327 11.2455H42.7909L43.455 8.41077H44.1902L43.1674 12.1257Z" fill="white"/>
<path d="M45.0539 8.41075H45.7616V9.0009H45.8166C45.9098 8.78894 46.067 8.61126 46.2663 8.49262C46.4655 8.37398 46.697 8.32029 46.9283 8.33905C47.1095 8.32545 47.2916 8.35271 47.4608 8.41879C47.6301 8.48487 47.7823 8.58808 47.9061 8.72077C48.03 8.85347 48.1223 9.01225 48.1762 9.18535C48.2301 9.35845 48.2443 9.54144 48.2177 9.72076V12.1256H47.4825V9.90486C47.4825 9.30787 47.2224 9.01098 46.6786 9.01098C46.5556 9.00526 46.4327 9.02615 46.3185 9.07221C46.2043 9.11827 46.1014 9.18841 46.0169 9.27783C45.9324 9.36724 45.8683 9.47382 45.829 9.59026C45.7897 9.70669 45.7761 9.83022 45.7891 9.95239V12.1257H45.0539L45.0539 8.41075Z" fill="white"/>
<path d="M49.3892 6.96057H50.1244V12.1257H49.3892V6.96057Z" fill="white"/>
<path d="M51.1464 10.2666C51.123 10.0225 51.151 9.77615 51.2287 9.54343C51.3063 9.31072 51.4319 9.09675 51.5973 8.91526C51.7628 8.73377 51.9644 8.58877 52.1893 8.48954C52.4143 8.39031 52.6575 8.33905 52.9035 8.33905C53.1494 8.33905 53.3926 8.39031 53.6176 8.48954C53.8425 8.58877 54.0441 8.73377 54.2096 8.91526C54.375 9.09675 54.5006 9.31072 54.5782 9.54343C54.6559 9.77615 54.6839 10.0225 54.6605 10.2666C54.6843 10.511 54.6566 10.7577 54.5792 10.9908C54.5017 11.2239 54.3762 11.4382 54.2107 11.62C54.0453 11.8019 53.8435 11.9472 53.6183 12.0466C53.3932 12.146 53.1497 12.1974 52.9035 12.1974C52.6572 12.1974 52.4137 12.146 52.1886 12.0466C51.9634 11.9472 51.7616 11.8019 51.5962 11.62C51.4307 11.4382 51.3052 11.2239 51.2277 10.9908C51.1503 10.7577 51.1226 10.511 51.1464 10.2666ZM53.9039 10.2666C53.9039 9.46137 53.5411 8.99046 52.9045 8.99046C52.2654 8.99046 51.9059 9.46137 51.9059 10.2666C51.9059 11.0783 52.2654 11.5456 52.9045 11.5456C53.5411 11.5456 53.9039 11.0751 53.9039 10.2666H53.9039Z" fill="white"/>
<path d="M55.4345 11.0751C55.4345 10.4064 55.9338 10.0209 56.8201 9.96614L57.8292 9.90814V9.58749C57.8292 9.19512 57.569 8.97357 57.0665 8.97357C56.6561 8.97357 56.3717 9.12383 56.2901 9.38647H55.5783C55.6535 8.74839 56.2554 8.33911 57.1005 8.33911C58.0344 8.33911 58.5612 8.80276 58.5612 9.58749V12.1257H57.8534V11.6037H57.7953C57.6772 11.7909 57.5114 11.9436 57.3148 12.0461C57.1182 12.1485 56.8979 12.1972 56.6763 12.1869C56.5199 12.2032 56.3618 12.1865 56.2123 12.1381C56.0627 12.0897 55.925 12.0105 55.808 11.9058C55.691 11.801 55.5974 11.673 55.533 11.5299C55.4687 11.3869 55.4351 11.2319 55.4345 11.0751ZM57.8292 10.7577V10.4471L56.9195 10.5051C56.4064 10.5394 56.1738 10.7134 56.1738 11.0409C56.1738 11.3752 56.4646 11.5698 56.8646 11.5698C56.9817 11.5816 57.1001 11.5698 57.2126 11.5351C57.3252 11.5004 57.4295 11.4435 57.5195 11.3677C57.6095 11.2919 57.6833 11.1989 57.7365 11.0941C57.7897 10.9893 57.8212 10.8749 57.8292 10.7577Z" fill="white"/>
<path d="M59.5275 10.2666C59.5275 9.09278 60.1326 8.34915 61.0738 8.34915C61.3067 8.33845 61.5377 8.39406 61.74 8.50947C61.9423 8.62488 62.1075 8.79533 62.2162 9.0009H62.2712V6.96057H63.0064V12.1257H62.3019V11.5388H62.2437C62.1266 11.7429 61.9556 11.9113 61.7494 12.0255C61.5432 12.1398 61.3096 12.1956 61.0738 12.1869C60.1261 12.1869 59.5275 11.4433 59.5275 10.2666ZM60.2869 10.2666C60.2869 11.0546 60.6594 11.5287 61.2823 11.5287C61.902 11.5287 62.2849 11.0477 62.2849 10.2699C62.2849 9.49561 61.898 9.00778 61.2823 9.00778C60.6634 9.00778 60.2869 9.48513 60.2869 10.2666H60.2869Z" fill="white"/>
<path d="M66.0482 10.2666C66.0248 10.0225 66.0528 9.77617 66.1304 9.54347C66.2081 9.31076 66.3336 9.0968 66.4991 8.91532C66.6645 8.73383 66.8661 8.58882 67.091 8.4896C67.3159 8.39037 67.5591 8.33911 67.8051 8.33911C68.051 8.33911 68.2942 8.39037 68.5191 8.4896C68.744 8.58882 68.9457 8.73383 69.1111 8.91532C69.2765 9.0968 69.402 9.31076 69.4797 9.54347C69.5573 9.77617 69.5853 10.0225 69.5619 10.2666C69.5858 10.511 69.5581 10.7577 69.4807 10.9907C69.4032 11.2238 69.2777 11.4382 69.1123 11.62C68.9468 11.8019 68.7451 11.9472 68.5199 12.0466C68.2948 12.1461 68.0513 12.1974 67.8051 12.1974C67.5588 12.1974 67.3153 12.1461 67.0902 12.0466C66.8651 11.9472 66.6633 11.8019 66.4978 11.62C66.3324 11.4382 66.2069 11.2238 66.1295 10.9907C66.052 10.7577 66.0244 10.511 66.0482 10.2666ZM68.8057 10.2666C68.8057 9.46137 68.4429 8.99046 67.8063 8.99046C67.1672 8.99046 66.8077 9.46137 66.8077 10.2666C66.8077 11.0783 67.1672 11.5456 67.8063 11.5456C68.4429 11.5456 68.8057 11.0751 68.8057 10.2666Z" fill="white"/>
<path d="M70.5483 8.41075H71.2561V9.0009H71.311C71.4042 8.78894 71.5614 8.61126 71.7607 8.49262C71.96 8.37398 72.1914 8.32029 72.4227 8.33905C72.604 8.32545 72.786 8.35271 72.9553 8.41879C73.1245 8.48487 73.2767 8.58808 73.4006 8.72077C73.5244 8.85347 73.6167 9.01225 73.6707 9.18535C73.7246 9.35845 73.7388 9.54144 73.7122 9.72076V12.1256H72.977V9.90486C72.977 9.30787 72.7168 9.01098 72.1731 9.01098C72.05 9.00526 71.9272 9.02615 71.8129 9.07221C71.6987 9.11827 71.5958 9.18841 71.5114 9.27783C71.4269 9.36724 71.3628 9.47382 71.3234 9.59026C71.2841 9.70669 71.2705 9.83022 71.2836 9.95239V12.1257H70.5483V8.41075Z" fill="white"/>
<path d="M77.8665 7.4859V8.42772H78.6737V9.04527H77.8665V10.9555C77.8665 11.3446 78.0273 11.515 78.3933 11.515C78.487 11.5147 78.5806 11.5091 78.6737 11.4981V12.1088C78.5416 12.1324 78.4079 12.1449 78.2737 12.1463C77.4561 12.1463 77.1305 11.8594 77.1305 11.1432V9.04523H76.5391V8.42769H77.1305V7.4859H77.8665Z" fill="white"/>
<path d="M79.6779 6.96057H80.4067V9.00777H80.4648C80.5626 8.79383 80.7241 8.61514 80.9273 8.49605C81.1306 8.37697 81.3658 8.32327 81.6007 8.34229C81.7811 8.3325 81.9613 8.36253 82.1287 8.43021C82.296 8.4979 82.4463 8.60157 82.5689 8.73385C82.6914 8.86613 82.7832 9.02375 82.8376 9.19546C82.892 9.36717 82.9078 9.54874 82.8837 9.72723V12.1257H82.1478V9.90809C82.1478 9.31472 81.8706 9.0142 81.3512 9.0142C81.2248 9.00387 81.0977 9.02119 80.9787 9.06496C80.8598 9.10873 80.7519 9.17789 80.6625 9.2676C80.5732 9.3573 80.5046 9.4654 80.4615 9.58431C80.4184 9.70322 80.4019 9.83009 80.4132 9.95602V12.1257H79.6779L79.6779 6.96057Z" fill="white"/>
<path d="M87.1706 11.1226C87.0708 11.4621 86.8543 11.7558 86.5592 11.9523C86.2641 12.1488 85.9092 12.2355 85.5564 12.1974C85.311 12.2038 85.0671 12.157 84.8416 12.06C84.6162 11.963 84.4146 11.8183 84.2509 11.6359C84.0871 11.4534 83.9652 11.2376 83.8934 11.0035C83.8217 10.7693 83.802 10.5224 83.8355 10.2799C83.8028 10.0366 83.823 9.78917 83.8945 9.55432C83.9661 9.31946 84.0874 9.10268 84.2503 8.91864C84.4131 8.73461 84.6137 8.58762 84.8385 8.48762C85.0633 8.38762 85.307 8.33696 85.5532 8.33905C86.5897 8.33905 87.2151 9.04525 87.2151 10.2118V10.4676H84.5845V10.5087C84.573 10.645 84.5901 10.7823 84.6349 10.9116C84.6797 11.0409 84.7511 11.1595 84.8445 11.2597C84.9379 11.3599 85.0513 11.4395 85.1774 11.4934C85.3034 11.5474 85.4394 11.5745 85.5766 11.573C85.7525 11.594 85.9306 11.5624 86.0885 11.4822C86.2463 11.402 86.3766 11.2769 86.4629 11.1226L87.1706 11.1226ZM84.5844 9.9254H86.4661C86.4754 9.80072 86.4584 9.67549 86.4162 9.55775C86.3741 9.44 86.3077 9.33236 86.2213 9.24172C86.135 9.15109 86.0305 9.07948 85.9148 9.03148C85.799 8.98349 85.6745 8.96017 85.5491 8.96304C85.422 8.96145 85.2958 8.98525 85.178 9.03306C85.0602 9.08086 84.9532 9.1517 84.8633 9.24139C84.7734 9.33107 84.7024 9.4378 84.6545 9.55528C84.6066 9.67275 84.5828 9.7986 84.5845 9.9254H84.5844Z" fill="white"/>
</g>
<defs>
<clipPath id="clip0">
<rect width="99" height="33" fill="white" transform="translate(0.5)"/>
</clipPath>
</defs>
</svg>
