<svg width="247" height="73" viewBox="0 0 247 73" fill="none" xmlns="http://www.w3.org/2000/svg">
<path d="M9.80518 0.893399H237.114C239.506 0.872913 241.807 1.80094 243.512 3.47337C245.218 5.1458 246.188 7.42559 246.209 9.81143V63.3077C246.188 65.6936 245.218 67.9734 243.512 69.6458C241.807 71.3182 239.506 72.2463 237.114 72.2258H9.80526C7.41411 72.2463 5.11266 71.3182 3.40722 69.6458C1.70177 67.9734 0.731932 65.6936 0.711029 63.3077V9.81143C0.731932 7.42559 1.70178 5.14564 3.40722 3.47322C5.11265 1.80079 7.41405 0.8729 9.80518 0.893399Z" fill="#231F20"/>
<path d="M237.773 1.45725C239.809 1.46052 241.762 2.26973 243.202 3.70748C244.641 5.14523 245.451 7.09405 245.453 9.1265V63.8733C245.451 65.9052 244.641 67.8534 243.201 69.2902C241.761 70.7269 239.809 71.5347 237.773 71.5364H9.14681C7.10985 71.5348 5.15663 70.7271 3.7157 69.2905C2.27476 67.8539 1.46376 65.9058 1.46048 63.8733V9.12665C1.46381 7.09364 2.27464 5.14488 3.71539 3.70732C5.15613 2.26976 7.10929 1.46057 9.14681 1.45725H237.773ZM237.773 0.000154305H9.14681C6.72299 0.00682595 4.40035 0.970466 2.68644 2.68058C0.97254 4.39069 0.00668643 6.7082 0 9.12665V63.8735C0.00668643 66.2919 0.97254 68.6094 2.68644 70.3195C4.40035 72.0296 6.72299 72.9933 9.14681 73H237.773C240.196 72.9933 242.519 72.0296 244.233 70.3195C245.947 68.6094 246.913 66.2919 246.919 63.8735V9.12665C246.913 6.70818 245.947 4.39071 244.233 2.68058C242.519 0.970444 240.196 0.00667176 237.773 0V0.000154305Z" fill="#AEAAA8"/>
<path d="M58.6265 37.6871C58.6459 36.1873 59.045 34.7166 59.7868 33.4119C60.5286 32.1073 61.589 31.0111 62.8694 30.2251C62.0525 29.0729 60.9784 28.1257 59.7319 27.4586C58.4854 26.7914 57.1006 26.4225 55.6867 26.3809C52.6588 26.0669 49.7316 28.1836 48.1892 28.1836C46.6469 28.1836 44.2485 26.3809 41.6928 26.4437C40.0406 26.4989 38.4308 26.9796 37.02 27.8392C35.6091 28.6988 34.4452 29.9081 33.6413 31.3494C32.3251 34.5703 31.859 38.0745 32.2878 41.5265C32.7165 44.9786 34.0257 48.263 36.0901 51.0659C37.7583 53.4465 39.7098 56.0909 42.2592 56.0092C44.8087 55.9276 45.69 54.4202 48.7055 54.4202C51.7211 54.4202 52.5707 56.0093 55.1705 55.9528C57.7704 55.8962 59.5394 53.5596 61.151 51.1539C62.349 49.4581 63.2711 47.5843 63.883 45.6014C62.3244 44.9435 60.9946 43.842 60.0598 42.4344C59.1249 41.0269 58.6264 39.3757 58.6265 37.6871Z" fill="white"/>
<path d="M53.7101 23.1651C55.1705 21.4104 55.8905 19.1581 55.7182 16.8838C53.485 17.1152 51.4214 18.1784 49.9393 19.8611C49.2115 20.6815 48.6546 21.6384 48.3012 22.6758C47.9478 23.7131 47.8049 24.8103 47.8808 25.9034C48.9971 25.9189 50.1022 25.6804 51.1123 25.2059C52.1224 24.7314 53.0109 24.0335 53.7101 23.1651Z" fill="white"/>
<path d="M90.1966 49.9857H81.6731L79.6272 56.0093H76.0138L84.0903 33.7048H87.836L95.9126 56.0093H92.2362L90.1966 49.9857ZM82.5542 47.2031H89.3092L85.979 37.4171H85.8846L82.5542 47.2031Z" fill="white"/>
<path d="M113.344 47.8814C113.344 52.9064 110.63 56.1852 106.539 56.1852C105.503 56.2398 104.472 56.0018 103.566 55.4985C102.66 54.9952 101.914 54.247 101.414 53.3398H101.351V61.3923H98.0088V39.7473H101.244V42.4545H101.307C101.829 41.554 102.584 40.8107 103.494 40.3032C104.404 39.7957 105.434 39.543 106.476 39.5715C110.618 39.5715 113.344 42.8439 113.344 47.8814ZM109.9 47.8814C109.9 44.5898 108.2 42.4231 105.594 42.4231C102.988 42.4231 101.351 44.6341 101.351 47.8814C101.351 51.1288 103.07 53.3523 105.626 53.3523C108.182 53.3523 109.9 51.2042 109.9 47.8814Z" fill="white"/>
<path d="M131.285 47.8815C131.285 52.9064 128.572 56.1852 124.48 56.1852C123.443 56.2395 122.412 56.0015 121.505 55.4983C120.597 54.995 119.85 54.247 119.349 53.3399H119.274V61.3924H115.931V39.7473H119.167V42.4546H119.23C119.752 41.5512 120.511 40.806 121.424 40.2983C122.338 39.7907 123.372 39.5396 124.417 39.5716C128.559 39.5716 131.285 42.8439 131.285 47.8815ZM127.841 47.8815C127.841 44.5899 126.135 42.4231 123.535 42.4231C120.936 42.4231 119.261 44.6341 119.261 47.8815C119.261 51.1289 120.98 53.3524 123.535 53.3524C126.091 53.3524 127.841 51.2043 127.841 47.8815Z" fill="white"/>
<path d="M143.138 49.7971C143.39 52.0081 145.543 53.459 148.483 53.459C151.303 53.459 153.336 52.0079 153.336 50.017C153.336 48.2834 152.077 47.247 149.213 46.5373L146.317 45.8526C142.213 44.8602 140.306 42.9444 140.306 39.8352C140.306 35.9911 143.667 33.3467 148.439 33.3467C153.21 33.3467 156.402 35.9911 156.509 39.8352H153.135C152.934 37.6116 151.089 36.2675 148.388 36.2675C145.688 36.2675 143.85 37.6306 143.85 39.6091C143.85 41.1857 145.027 42.1215 147.91 42.8248L150.378 43.453C154.961 44.5334 156.868 46.3737 156.868 49.6337C156.868 53.8107 153.538 56.4235 148.238 56.4235C143.277 56.4235 139.934 53.8671 139.714 49.8346L143.138 49.7971Z" fill="white"/>
<path d="M164.088 35.8969V39.7472H167.186V42.3917H164.088V51.361C164.088 52.7491 164.718 53.4024 166.071 53.4024C166.44 53.3957 166.808 53.3683 167.173 53.3207V55.9525C166.561 56.0657 165.939 56.1162 165.316 56.1032C162.011 56.1032 160.727 54.8471 160.727 51.7065V42.3914H158.36V39.7471H160.727V35.8967L164.088 35.8969Z" fill="white"/>
<path d="M168.986 47.8814C168.865 46.8103 168.976 45.7257 169.313 44.7016C169.65 43.6775 170.204 42.7377 170.938 41.9467C171.671 41.1556 172.567 40.5316 173.565 40.1174C174.562 39.7031 175.637 39.5083 176.717 39.5461C177.796 39.5083 178.871 39.7031 179.868 40.1174C180.866 40.5316 181.762 41.1557 182.495 41.9468C183.229 42.7379 183.783 43.6775 184.12 44.7016C184.457 45.7257 184.568 46.8103 184.447 47.8814C184.57 48.9528 184.461 50.0382 184.125 51.0633C183.789 52.0884 183.235 53.029 182.5 53.8205C181.766 54.6121 180.869 55.236 179.871 55.6495C178.873 56.0631 177.797 56.2564 176.717 56.2164C175.636 56.2575 174.56 56.0649 173.561 55.6517C172.562 55.2385 171.665 54.6147 170.93 53.8229C170.196 53.031 169.642 52.0899 169.306 51.0644C168.971 50.0388 168.861 48.953 168.986 47.8814ZM181.035 47.8814C181.035 44.3702 179.424 42.2974 176.717 42.2974C174.01 42.2974 172.392 44.3891 172.392 47.8814C172.392 51.3737 174.003 53.459 176.717 53.459C179.43 53.459 181.035 51.4051 181.035 47.8814Z" fill="white"/>
<path d="M187.204 39.7473H190.396V42.5174H190.471C190.687 41.6521 191.195 40.8871 191.909 40.3508C192.623 39.8144 193.5 39.5392 194.393 39.5714C194.779 39.5697 195.163 39.612 195.539 39.6971V42.8377C195.051 42.6904 194.543 42.6225 194.034 42.6366C193.546 42.6178 193.06 42.7049 192.609 42.8919C192.158 43.0788 191.753 43.3611 191.422 43.7194C191.091 44.0777 190.842 44.5034 190.692 44.9671C190.542 45.4308 190.494 45.9216 190.553 46.4054V56.0093H187.204L187.204 39.7473Z" fill="white"/>
<path d="M210.968 51.2357C210.6 52.7728 209.686 54.1247 208.396 55.0407C207.105 55.9566 205.525 56.3743 203.949 56.2166C202.876 56.2644 201.804 56.0786 200.81 55.6719C199.815 55.2653 198.921 54.6476 198.19 53.8618C197.459 53.0759 196.908 52.1408 196.575 51.1212C196.242 50.1015 196.136 49.0217 196.263 47.9568C196.132 46.8949 196.23 45.8174 196.551 44.7965C196.872 43.7757 197.408 42.8353 198.124 42.0385C198.84 41.2417 199.718 40.607 200.7 40.1771C201.682 39.7473 202.745 39.5322 203.817 39.5463C204.853 39.5073 205.885 39.6942 206.841 40.0939C207.797 40.4937 208.655 41.0967 209.354 41.8609C210.052 42.6251 210.576 43.5321 210.887 44.5188C211.199 45.5054 211.291 46.5479 211.157 47.5737V48.717H199.643V48.9179C199.591 49.518 199.667 50.1225 199.867 50.691C200.067 51.2594 200.386 51.7789 200.803 52.2146C201.22 52.6503 201.725 52.9923 202.285 53.2177C202.845 53.4432 203.447 53.5469 204.05 53.522C204.842 53.5944 205.636 53.4114 206.316 52.9998C206.996 52.5883 207.526 51.9699 207.827 51.2357H210.968ZM199.637 46.3803H207.789C207.821 45.8419 207.74 45.3027 207.552 44.797C207.365 44.2913 207.074 43.8299 206.698 43.442C206.322 43.0542 205.87 42.7484 205.37 42.5438C204.87 42.3393 204.332 42.2404 203.792 42.2536C203.248 42.2494 202.708 42.3534 202.204 42.5593C201.701 42.7652 201.243 43.069 200.858 43.453C200.473 43.837 200.169 44.2937 199.963 44.7962C199.756 45.2988 199.652 45.8372 199.656 46.3803H199.637Z" fill="white"/>
<path d="M82.1325 16.9152C82.8332 16.865 83.5363 16.971 84.1909 17.2254C84.8456 17.4798 85.4353 17.8762 85.9173 18.3861C86.3994 18.8959 86.7618 19.5065 86.9782 20.1734C87.1946 20.8402 87.2596 21.5468 87.1686 22.2418C87.2601 22.9399 87.1959 23.6496 86.9805 24.32C86.7652 24.9904 86.4039 25.605 85.9227 26.12C85.4416 26.6349 84.8523 27.0373 84.197 27.2985C83.5418 27.5598 82.8368 27.6734 82.1325 27.6311H78.2547V16.9154L82.1325 16.9152ZM79.9481 26.1173H81.9751C82.4766 26.1474 82.9785 26.0655 83.4442 25.8775C83.91 25.6896 84.3278 25.4003 84.6673 25.0309C85.0069 24.6614 85.2595 24.221 85.4069 23.7418C85.5543 23.2626 85.5927 22.7565 85.5193 22.2606C85.5901 21.7664 85.5498 21.2626 85.4011 20.7858C85.2525 20.309 84.9992 19.8714 84.6598 19.5045C84.3204 19.1375 83.9034 18.8506 83.439 18.6646C82.9746 18.4786 82.4745 18.3982 81.9751 18.4291H79.9481V26.1173Z" fill="white"/>
<path d="M89.076 23.5859C89.0059 23.0505 89.0536 22.5062 89.2158 21.991C89.3779 21.4759 89.6506 21.0021 90.0149 20.6028C90.3792 20.2034 90.8263 19.8881 91.3251 19.6786C91.824 19.4692 92.3625 19.3708 92.9034 19.3901C93.4439 19.3709 93.9821 19.4695 94.4805 19.6791C94.979 19.8887 95.4256 20.2041 95.7893 20.6035C96.1531 21.0029 96.4252 21.4768 96.5867 21.9918C96.7482 22.5069 96.7952 23.0509 96.7245 23.5859C96.7953 24.1213 96.7484 24.6655 96.587 25.181C96.4256 25.6964 96.1536 26.1706 95.7899 26.5705C95.4263 26.9704 94.9797 27.2865 94.4812 27.4968C93.9827 27.707 93.4443 27.8064 92.9034 27.788C92.3619 27.8076 91.8227 27.7091 91.3233 27.4994C90.8239 27.2897 90.3763 26.9737 90.0119 26.5736C89.6475 26.1735 89.3749 25.6988 89.2133 25.1828C89.0516 24.6668 89.0048 24.1219 89.076 23.5859ZM95.0752 23.5859C95.0752 21.8335 94.2883 20.8034 92.9034 20.8034C91.5184 20.8034 90.7253 21.8335 90.7253 23.5859C90.7253 25.3384 91.5122 26.381 92.9034 26.381C94.2946 26.381 95.0563 25.3445 95.0563 23.5859H95.0752Z" fill="white"/>
<path d="M106.885 27.6372H105.223L103.548 21.6825H103.422L101.754 27.6372H100.092L97.8573 19.5471H99.4814L100.929 25.7215H101.049L102.717 19.5471H104.253L105.921 25.7215H106.047L107.495 19.5471H109.094L106.885 27.6372Z" fill="white"/>
<path d="M110.989 19.5408H112.532V20.797H112.683C112.885 20.3354 113.226 19.9486 113.66 19.6906C114.093 19.4326 114.597 19.3165 115.1 19.3585C115.494 19.3283 115.891 19.3872 116.26 19.5309C116.628 19.6745 116.96 19.8992 117.23 20.1882C117.499 20.4773 117.7 20.8233 117.818 21.2005C117.935 21.5777 117.965 21.9764 117.907 22.367V27.6371H116.308V22.8006C116.308 21.5004 115.742 20.8534 114.558 20.8534C114.058 20.838 113.571 21.0216 113.206 21.3639C112.841 21.7062 112.628 22.1792 112.612 22.6787C112.61 22.7549 112.612 22.8313 112.619 22.9072V27.6368H111.02L110.989 19.5408Z" fill="white"/>
<path d="M120.426 16.3877H122.025V27.6373H120.426V16.3877Z" fill="white"/>
<path d="M124.247 23.5859C124.177 23.0505 124.224 22.5062 124.387 21.991C124.549 21.4759 124.821 21.0021 125.186 20.6028C125.55 20.2034 125.997 19.8881 126.496 19.6786C126.995 19.4692 127.533 19.3707 128.074 19.3901C128.615 19.371 129.153 19.4696 129.651 19.6792C130.15 19.8888 130.596 20.2043 130.96 20.6037C131.324 21.0031 131.596 21.4768 131.757 21.9918C131.919 22.5068 131.966 23.0509 131.895 23.5859C131.966 24.1213 131.919 24.6656 131.757 25.181C131.596 25.6964 131.324 26.1706 130.961 26.5705C130.597 26.9704 130.15 27.2864 129.652 27.4966C129.153 27.7069 128.615 27.8063 128.074 27.788C127.533 27.8076 126.993 27.7092 126.494 27.4994C125.995 27.2897 125.547 26.9737 125.183 26.5736C124.818 26.1735 124.546 25.6988 124.384 25.1828C124.222 24.6668 124.176 24.1219 124.247 23.5859ZM130.252 23.5859C130.252 21.8335 129.459 20.8034 128.074 20.8034C126.689 20.8034 125.902 21.8335 125.902 23.5859C125.902 25.3384 126.683 26.381 128.074 26.381C129.466 26.381 130.252 25.3445 130.252 23.5859Z" fill="white"/>
<path d="M133.582 25.3446C133.582 23.8874 134.665 23.052 136.598 22.9328L138.795 22.8009V22.1037C138.795 21.2495 138.228 20.7658 137.132 20.7658C136.239 20.7658 135.622 21.0987 135.445 21.6703H133.89C134.054 20.2759 135.364 19.3901 137.208 19.3901C139.235 19.3901 140.356 20.3952 140.356 22.1037V27.6373H138.813V26.494H138.687C138.428 26.8991 138.067 27.2285 137.639 27.4492C137.211 27.6698 136.732 27.7736 136.251 27.7502C135.914 27.7854 135.573 27.7493 135.25 27.6444C134.928 27.5394 134.631 27.3679 134.379 27.141C134.128 26.9141 133.927 26.637 133.789 26.3275C133.652 26.018 133.582 25.6831 133.582 25.3446ZM138.795 24.6538V23.9753L136.812 24.1011C135.698 24.1764 135.188 24.5595 135.188 25.2693C135.188 25.9791 135.817 26.425 136.692 26.425C136.948 26.451 137.206 26.4253 137.451 26.3496C137.696 26.2739 137.924 26.1498 138.12 25.9845C138.316 25.8192 138.477 25.6164 138.593 25.3878C138.709 25.1592 138.778 24.9097 138.795 24.6541V24.6538Z" fill="white"/>
<path d="M142.49 23.586C142.49 21.0296 143.806 19.409 145.852 19.409C146.358 19.3861 146.861 19.5073 147.301 19.7586C147.742 20.01 148.101 20.3811 148.338 20.8286H148.458V16.3877H150.057V27.6373H148.527V26.3809H148.401C148.146 26.8257 147.773 27.1923 147.324 27.4404C146.874 27.6885 146.365 27.8087 145.852 27.788C143.793 27.763 142.49 26.1487 142.49 23.586ZM144.139 23.586C144.139 25.3008 144.951 26.3308 146.305 26.3308C147.658 26.3308 148.489 25.2881 148.489 23.5922C148.489 21.8963 147.646 20.8411 146.305 20.8411C144.964 20.8411 144.158 21.8838 144.158 23.586H144.139Z" fill="white"/>
<path d="M156.679 23.5859C156.609 23.0505 156.657 22.5062 156.819 21.991C156.981 21.4759 157.254 21.0021 157.618 20.6028C157.982 20.2034 158.429 19.8881 158.928 19.6786C159.427 19.4692 159.966 19.3707 160.506 19.3901C161.046 19.3716 161.583 19.4709 162.079 19.6811C162.576 19.8913 163.021 20.2072 163.382 20.6069C163.744 21.0066 164.014 21.4803 164.173 21.9949C164.332 22.5095 164.376 23.0525 164.302 23.5859C164.374 24.1209 164.328 24.6649 164.167 25.1802C164.006 25.6955 163.735 26.1697 163.372 26.5697C163.009 26.9697 162.562 27.2859 162.064 27.4963C161.566 27.7067 161.028 27.8062 160.488 27.788C159.947 27.8071 159.409 27.7081 158.911 27.4979C158.412 27.2877 157.966 26.9714 157.604 26.5711C157.241 26.1708 156.97 25.6962 156.81 25.1805C156.651 24.6649 156.606 24.1207 156.679 23.5859ZM162.678 23.5859C162.678 21.8335 161.891 20.8034 160.506 20.8034C159.122 20.8034 158.328 21.8335 158.328 23.5859C158.328 25.3384 159.115 26.381 160.525 26.381C161.935 26.381 162.678 25.3446 162.678 23.5859H162.678Z" fill="white"/>
<path d="M166.468 19.5408H168.01V20.797H168.13C168.333 20.3366 168.675 19.9508 169.109 19.6931C169.542 19.4354 170.044 19.3184 170.547 19.3586C170.942 19.3283 171.338 19.3873 171.707 19.5309C172.076 19.6746 172.407 19.8992 172.677 20.1883C172.947 20.4773 173.148 20.8233 173.265 21.2005C173.382 21.5777 173.413 21.9764 173.354 22.367V27.6372H171.756V22.8006C171.756 21.5004 171.189 20.8535 170.006 20.8535C169.758 20.8476 169.511 20.8905 169.28 20.9797C169.048 21.0689 168.837 21.2027 168.657 21.3735C168.478 21.5442 168.334 21.7486 168.234 21.9749C168.133 22.2013 168.079 22.4451 168.073 22.6925C168.071 22.7621 168.073 22.8317 168.079 22.9011V27.6372H166.474L166.468 19.5408Z" fill="white"/>
<path d="M182.395 17.5308V19.5786H184.151V20.9227H182.395V25.0871C182.395 25.9288 182.747 26.3057 183.54 26.3057C183.751 26.3039 183.961 26.2914 184.17 26.268V27.5933C183.883 27.6447 183.592 27.672 183.301 27.675C181.52 27.675 180.815 27.0468 180.815 25.4954V20.9224H179.524V19.5783H180.815V17.5305L182.395 17.5308Z" fill="white"/>
<path d="M186.335 16.3877H187.922V20.8411H188.054C188.27 20.3789 188.621 19.9931 189.062 19.735C189.503 19.477 190.012 19.3588 190.522 19.3963C190.914 19.3751 191.306 19.4406 191.671 19.588C192.035 19.7353 192.362 19.9608 192.629 20.2487C192.896 20.5366 193.096 20.8797 193.215 21.2535C193.334 21.6273 193.368 22.0227 193.317 22.4114V27.6373H191.712V22.8007C191.712 21.5445 191.082 20.8598 189.98 20.8598C189.481 20.8177 188.986 20.9753 188.603 21.2977C188.221 21.6201 187.982 22.081 187.94 22.579C187.931 22.6884 187.931 22.7984 187.941 22.9077V27.6374H186.335L186.335 16.3877Z" fill="white"/>
<path d="M202.646 25.4451C202.429 26.1846 201.958 26.8244 201.316 27.2527C200.674 27.6809 199.901 27.8704 199.133 27.7879C198.599 27.802 198.068 27.7 197.577 27.4887C197.086 27.2775 196.648 26.9622 196.291 26.5648C195.935 26.1673 195.669 25.6972 195.513 25.1871C195.357 24.6771 195.314 24.1393 195.388 23.6111C195.316 23.0819 195.359 22.5434 195.514 22.0324C195.669 21.5213 195.933 21.0496 196.287 20.6492C196.641 20.2488 197.078 19.929 197.567 19.7118C198.055 19.4945 198.585 19.3848 199.121 19.3901C201.406 19.3901 202.74 20.9226 202.74 23.4665V24.0192H197.037V24.1135C197.012 24.4104 197.049 24.7093 197.146 24.991C197.244 25.2727 197.399 25.5309 197.603 25.7491C197.806 25.9674 198.053 26.1409 198.327 26.2583C198.602 26.3758 198.898 26.4347 199.196 26.4313C199.579 26.4767 199.967 26.4071 200.31 26.2315C200.653 26.0558 200.936 25.7822 201.123 25.4453L202.646 25.4451ZM197.037 22.8385H201.129C201.15 22.5828 201.12 22.3255 201.041 22.0813C200.962 21.8371 200.836 21.6108 200.669 21.4153C200.503 21.2198 200.299 21.0589 200.071 20.9419C199.842 20.8249 199.592 20.754 199.336 20.7333C199.262 20.7273 199.188 20.7255 199.114 20.7279C198.843 20.7262 198.574 20.7778 198.323 20.8797C198.072 20.9817 197.843 21.1319 197.65 21.322C197.458 21.512 197.304 21.7382 197.199 21.9875C197.093 22.2368 197.038 22.5043 197.036 22.7749C197.036 22.796 197.037 22.8173 197.037 22.8385H197.037Z" fill="white"/>
</svg>
