<svg width="340" height="49" viewBox="0 0 340 49" fill="none" xmlns="http://www.w3.org/2000/svg">
<g clip-path="url(#clip0_4_632)">
<path d="M74.2023 21.784L85.9294 21.78L83.2142 35.8248C79.7288 38.4011 75.5256 39.7723 71.2203 39.7376C69.4534 39.8607 67.6808 39.6021 66.0187 38.9788C64.3566 38.3555 62.8422 37.3816 61.5749 36.1207C60.3075 34.8598 59.3155 33.3404 58.664 31.6618C58.0124 29.9832 57.7159 28.1834 57.7939 26.3799C57.7906 16.154 65.1458 7.834 74.6436 7.83091C77.1019 7.6204 79.5623 8.21078 81.6702 9.51694C83.7782 10.8231 85.4249 12.7776 86.3731 15.0989L80.2207 18.6005C79.7076 17.4574 78.8538 16.5083 77.7808 15.8885C76.7077 15.2687 75.4702 15.0098 74.2444 15.1485C69.0273 15.1502 65.6846 20.2417 65.6863 25.4685C65.6874 29.1497 67.5614 32.6942 71.6638 32.6928C73.6861 32.8656 75.7078 32.3537 77.4157 31.2365L78.0386 27.7367L73.0002 27.7384L74.2023 21.784Z" fill="black"/>
<path d="M94.7884 30.5033C94.8516 31.0317 95.0181 31.5418 95.2782 32.0034C95.5382 32.4649 95.8865 32.8687 96.3024 33.1906C96.7183 33.5126 97.1933 33.7462 97.6993 33.8777C98.2054 34.0092 98.7321 34.0358 99.2485 33.9561C101.182 33.9111 103.078 33.3963 104.777 32.4543L106.964 37.3167C104.311 38.9326 101.271 39.7674 98.1804 39.7284C93.0079 39.7302 87.8342 37.1412 87.8319 29.9148C87.8293 22.0066 93.0006 16.9145 99.7782 16.9123C100.957 16.8684 102.131 17.0741 103.228 17.5164C104.324 17.9586 105.319 18.6278 106.149 19.4818C106.979 20.3357 107.626 21.3558 108.05 22.4776C108.473 23.5993 108.664 24.7984 108.61 25.9992C108.599 27.5176 108.405 29.0289 108.032 30.4989L94.7884 30.5033ZM95.0099 26.1401L102.1 26.1378C102.191 25.8758 102.221 25.5958 102.189 25.3197C102.195 24.9304 102.119 24.5443 101.967 24.1869C101.815 23.8296 101.591 23.5093 101.308 23.2472C101.025 22.9851 100.691 22.7872 100.328 22.6667C99.9647 22.5462 99.5804 22.5058 99.2006 22.5483C98.1944 22.5303 97.2157 22.8842 96.4455 23.5444C95.6752 24.2046 95.1653 25.1266 95.01 26.1401H95.0099Z" fill="black"/>
<path d="M113.39 23.4071L110.447 23.4081L111.516 17.6355L114.458 17.6345L115.749 10.7713L122.973 10.7689L121.682 17.6321L126.632 17.6304L125.564 23.403L120.614 23.4047L119.1 31.086C119.053 31.3564 119.024 31.6297 119.011 31.904C118.986 32.1551 119.016 32.4088 119.099 32.6466C119.182 32.8844 119.316 33.1004 119.491 33.2789C119.666 33.4573 119.878 33.5937 120.111 33.6781C120.345 33.7625 120.594 33.7929 120.84 33.7669C121.884 33.7807 122.897 33.4091 123.694 32.7207L126.46 37.3102C124.335 38.9607 121.73 39.8413 119.059 39.8123C113.931 39.814 111.745 37.1787 111.744 33.1336C111.75 32.2332 111.84 31.3355 112.01 30.452L113.39 23.4071Z" fill="black"/>
<path d="M133.607 8.67459L153.986 8.66776L152.65 15.5312L139.852 15.5355L138.962 20.3533L149.486 20.3498L148.239 26.8038L137.716 26.8073L136.736 32.1255L150.47 32.1209L149.18 38.9841L127.865 38.9913L133.607 8.67459Z" fill="black"/>
<path d="M159.963 28.0271L154.653 17.621L162.234 17.6185L164.822 23.1171L169.1 17.6161L176.993 17.6135L167.945 28.1608L173.343 38.976L165.718 38.9786L162.952 33.162L158.495 38.981L150.602 38.9836L159.963 28.0271Z" fill="black"/>
<path d="M185.988 19.8376C186.684 18.9894 187.558 18.3119 188.546 17.8552C189.534 17.3985 190.61 17.1745 191.695 17.1997C195.44 17.1984 198.741 20.6969 198.743 26.1053C198.861 27.8664 198.617 29.6334 198.025 31.2924C197.433 32.9514 196.507 34.4656 195.306 35.7376C194.105 37.0096 192.656 38.0112 191.052 38.6778C189.448 39.3444 187.725 39.6613 185.994 39.6082C184.735 39.6504 183.48 39.4504 182.293 39.0186L180.602 48.0635L173.422 48.0659L179.209 17.6128L186.21 17.6106L185.988 19.8376ZM191.385 26.7895C191.431 26.3797 191.39 25.9646 191.264 25.5727C191.137 25.1808 190.929 24.8215 190.654 24.5193C190.378 24.2171 190.042 23.9793 189.668 23.8222C189.293 23.6651 188.89 23.5924 188.486 23.6091C187.482 23.6301 186.522 24.0339 185.796 24.741C185.07 25.448 184.63 26.4068 184.563 27.4281L183.451 33.2916C184.196 33.5497 184.984 33.6574 185.769 33.6088C188.98 33.6077 191.387 30.9709 191.385 26.7895Z" fill="black"/>
<path d="M207.418 30.4655C207.481 30.9938 207.648 31.5039 207.908 31.9655C208.168 32.4271 208.516 32.8308 208.932 33.1528C209.348 33.4747 209.823 33.7083 210.329 33.8398C210.835 33.9713 211.362 33.998 211.878 33.9183C213.812 33.8733 215.707 33.3585 217.407 32.4165L219.593 37.2789C216.941 38.8948 213.9 39.7296 210.81 39.6906C205.637 39.6923 200.464 37.1034 200.461 29.877C200.459 21.9688 205.63 16.8767 212.408 16.8744C213.586 16.8306 214.761 17.0363 215.857 17.4785C216.954 17.9208 217.949 18.59 218.779 19.444C219.608 20.2979 220.256 21.3179 220.679 22.4397C221.103 23.5615 221.294 24.7606 221.24 25.9613C221.229 27.4797 221.034 28.991 220.661 30.4611L207.418 30.4655ZM207.639 26.1023L214.729 26.1C214.82 25.8379 214.851 25.558 214.818 25.282C214.824 24.8926 214.748 24.5064 214.596 24.1491C214.445 23.7918 214.22 23.4715 213.937 23.2094C213.655 22.9473 213.321 22.7495 212.957 22.629C212.594 22.5085 212.21 22.4682 211.83 22.5106C210.824 22.4927 209.845 22.8465 209.075 23.5066C208.305 24.1668 207.795 25.0888 207.639 26.1023Z" fill="black"/>
<path d="M226.307 17.597L233.308 17.5947L232.997 20.2764C233.632 19.3401 234.477 18.5713 235.461 18.0336C236.446 17.4959 237.542 17.2047 238.659 17.184C239.601 17.1909 240.536 17.3596 241.424 17.683L239.241 24.183C238.496 23.9154 237.712 23.7773 236.922 23.7746C233.89 23.7757 231.973 25.9125 231.305 29.3668L229.48 38.9573L222.257 38.9597L226.307 17.597Z" fill="black"/>
<path d="M243.278 17.5913L250.502 17.5889L246.451 38.9515L239.227 38.9539L243.278 17.5913ZM244.613 8.63734L252.461 8.6347L251.304 14.6798L243.456 14.6824L244.613 8.63734Z" fill="black"/>
<path d="M258.167 30.4485C258.23 30.9768 258.397 31.4869 258.657 31.9485C258.917 32.4101 259.265 32.8138 259.681 33.1357C260.097 33.4577 260.572 33.6913 261.078 33.8228C261.584 33.9543 262.111 33.981 262.627 33.9012C264.561 33.8563 266.457 33.3414 268.156 32.3995L270.343 37.2618C267.69 38.8777 264.649 39.7126 261.559 39.6736C256.387 39.6753 251.213 37.0863 251.211 29.86C251.208 21.9518 256.379 16.8597 263.157 16.8574C264.335 16.8135 265.51 17.0192 266.607 17.4615C267.703 17.9038 268.698 18.573 269.528 19.4269C270.358 20.2809 271.005 21.3009 271.429 22.4227C271.852 23.5445 272.043 24.7436 271.989 25.9443C271.978 27.4627 271.784 28.974 271.41 30.444L258.167 30.4485ZM258.389 26.0853L265.478 26.0829C265.57 25.8208 265.6 25.5408 265.567 25.2648C265.573 24.8754 265.498 24.4893 265.346 24.132C265.194 23.7746 264.969 23.4543 264.686 23.1922C264.404 22.9302 264.07 22.7323 263.707 22.6119C263.343 22.4914 262.959 22.451 262.579 22.4934C261.573 22.4755 260.594 22.8293 259.824 23.4895C259.054 24.1497 258.544 25.0717 258.389 26.0853Z" fill="black"/>
<path d="M277.057 17.5799L284.058 17.5776L283.835 19.8048C284.677 18.8762 285.708 18.1467 286.855 17.6673C288.003 17.188 289.24 16.9706 290.479 17.0302C291.273 17.0272 292.06 17.1943 292.787 17.5209C293.514 17.8474 294.166 18.3261 294.7 18.9258C295.234 19.5255 295.638 20.2328 295.887 21.0021C296.136 21.7713 296.223 22.5852 296.144 23.3911C296.168 24.1681 296.109 24.9454 295.966 25.7091L293.429 38.9358L286.205 38.9382L288.386 27.3024C288.474 26.9149 288.519 26.5185 288.519 26.1207C288.567 25.7991 288.542 25.4707 288.446 25.1603C288.351 24.85 288.187 24.5659 287.968 24.3295C287.749 24.0931 287.48 23.9106 287.181 23.7959C286.883 23.6811 286.562 23.6371 286.245 23.6672C283.97 23.6679 282.767 25.3954 282.366 27.5316L280.23 38.9402L273.006 38.9426L277.057 17.5799Z" fill="black"/>
<path d="M316.557 35.8828C315.345 37.1226 313.897 38.097 312.302 38.7462C310.708 39.3954 309 39.7057 307.283 39.6582C306.053 39.7055 304.826 39.4935 303.68 39.0354C302.534 38.5773 301.492 37.883 300.622 36.996C299.751 36.1089 299.069 35.0481 298.619 33.8801C298.168 32.7121 297.96 31.4619 298.005 30.2079C297.934 28.4873 298.203 26.7697 298.797 25.1575C299.391 23.5453 300.297 22.0716 301.462 20.8241C302.627 19.5767 304.026 18.5812 305.577 17.8969C307.127 17.2127 308.797 16.8537 310.487 16.8415C312.326 16.7581 314.141 17.2963 315.649 18.3725C317.157 19.4487 318.274 21.0026 318.827 22.7926L313.343 25.6123C312.495 24.1127 311.871 23.2494 309.953 23.2501C307.501 23.2509 305.317 25.6151 305.318 29.3874C305.26 29.8632 305.301 30.3462 305.436 30.8052C305.572 31.2642 305.801 31.6892 306.108 32.0529C306.414 32.4165 306.792 32.7108 307.217 32.9169C307.642 33.123 308.104 33.2363 308.574 33.2495C310.201 33.1463 311.722 32.3948 312.81 31.1573L316.557 35.8828Z" fill="black"/>
<path d="M326.178 30.4256C326.241 30.954 326.408 31.4641 326.668 31.9257C326.928 32.3873 327.276 32.791 327.692 33.1129C328.108 33.4349 328.583 33.6685 329.089 33.8C329.595 33.9315 330.122 33.9581 330.638 33.8784C332.572 33.8334 334.468 33.3186 336.167 32.3766L338.354 37.239C335.701 38.8549 332.66 39.6897 329.57 39.6508C324.398 39.6525 319.224 37.0635 319.222 29.8371C319.219 21.9289 324.39 16.8368 331.168 16.8346C332.346 16.7907 333.521 16.9964 334.618 17.4387C335.714 17.8809 336.709 18.5501 337.539 19.4041C338.369 20.258 339.016 21.2781 339.44 22.3999C339.863 23.5216 340.054 24.7207 340 25.9215C339.989 27.4399 339.795 28.9512 339.422 30.4212L326.178 30.4256ZM326.4 26.0624L333.49 26.0601C333.581 25.7981 333.611 25.5181 333.579 25.2421C333.584 24.8527 333.509 24.4666 333.357 24.1092C333.205 23.7519 332.98 23.4316 332.698 23.1695C332.415 22.9074 332.081 22.7096 331.718 22.5891C331.354 22.4687 330.97 22.4283 330.59 22.4707C329.584 22.4528 328.605 22.8066 327.835 23.4668C327.065 24.1269 326.555 25.0489 326.4 26.0624Z" fill="black"/>
<path d="M46.3635 29.0868L41.8545 24.4941L46.3604 19.8983C46.9023 19.3456 47.3321 18.6896 47.6252 17.9676C47.9183 17.2457 48.069 16.472 48.0688 15.6906C48.0685 14.9093 47.9173 14.1357 47.6237 13.4139C47.3301 12.6921 46.8999 12.0364 46.3577 11.4841C45.8115 10.7834 45.1097 10.225 44.3101 9.85489C43.5106 9.4848 42.6363 9.31363 41.7592 9.35549L34.3804 16.8812L26.9113 24.4991L34.3853 32.1119L41.7689 39.6327C42.646 39.674 43.5203 39.5022 44.3195 39.1316C45.1188 38.761 45.8202 38.2021 46.3661 37.501C46.9079 36.9484 47.3377 36.2923 47.6308 35.5704C47.924 34.8484 48.0747 34.0747 48.0745 33.2934C48.0743 32.512 47.923 31.7384 47.6295 31.0167C47.3359 30.2949 46.9057 29.6391 46.3635 29.0868Z" fill="#359F53"/>
<path d="M36.7928 1.74126C36.2506 1.18896 35.6069 0.750914 34.8986 0.45215C34.1903 0.153386 33.4312 -0.000259356 32.6646 3.2863e-07C31.898 0.000260013 31.139 0.154398 30.4309 0.453642C29.7227 0.752886 29.0794 1.19137 28.5375 1.74404L24.0316 6.33984L19.5225 1.74712C18.9803 1.19482 18.3367 0.756779 17.6284 0.458013C16.92 0.159247 16.1609 0.00560582 15.3944 0.00586339C14.6278 0.00612096 13.8688 0.160297 13.1606 0.45954C12.4525 0.758782 11.8092 1.19723 11.2673 1.7499C10.5798 2.30668 10.0319 3.02201 9.66882 3.83691C9.30572 4.6518 9.13777 5.54296 9.17882 6.43698L16.5625 13.9578L24.0365 21.5707L31.5056 13.9528L38.8843 6.42713C38.9248 5.53304 38.7563 4.64196 38.3927 3.82726C38.029 3.01257 37.4807 2.29759 36.7928 1.74126Z" fill="#427CEB"/>
<path d="M13.6893 16.8881L6.30575 9.36724C5.42859 9.32599 4.55436 9.49775 3.75509 9.86838C2.95583 10.239 2.2544 10.7979 1.70859 11.499C1.16672 12.0517 0.736952 12.7077 0.443827 13.4297C0.150702 14.1516 -3.67013e-05 14.9253 0.000213935 15.7067C0.000464571 16.488 0.151701 17.2617 0.445289 17.9834C0.738877 18.7052 1.16907 19.3609 1.71129 19.9132L6.22031 24.5059L1.71435 29.1018C1.17248 29.6544 0.742711 30.3104 0.449588 31.0324C0.156465 31.7544 0.00572631 32.5281 0.00597902 33.3094C0.00623172 34.0907 0.15747 34.8644 0.45106 35.5861C0.74465 36.3079 1.17484 36.9636 1.71707 37.5159C2.26334 38.2167 2.96514 38.7751 3.76465 39.1452C4.56417 39.5153 5.43851 39.6864 6.31565 39.6445L13.6944 32.1189L21.1635 24.501L13.6893 16.8881Z" fill="#DF4236"/>
<path d="M38.8959 42.563L31.5124 35.0423L24.0383 27.4294L16.5692 35.0473L9.19046 42.5729C9.14998 43.467 9.31849 44.3581 9.68211 45.1727C10.0457 45.9874 10.5941 46.7023 11.2819 47.2586C12.377 48.3741 13.862 49.0004 15.4101 48.9999C16.9583 48.9994 18.4428 48.372 19.5372 47.2559L24.0431 42.6601L28.5522 47.2528C29.6472 48.3682 31.1322 48.9945 32.6804 48.994C34.2285 48.9935 35.7131 48.3662 36.8074 47.25C37.4949 46.6933 38.0428 45.9779 38.4059 45.1631C38.769 44.3482 38.9369 43.457 38.8959 42.563Z" fill="#F0B30B"/>
</g>
<defs>
<clipPath id="clip0_4_632">
<rect width="340" height="49" fill="white"/>
</clipPath>
</defs>
</svg>
