<svg width="246" height="73" viewBox="0 0 246 73" fill="none" xmlns="http://www.w3.org/2000/svg">
<path d="M10.3596 0.726877H236.218C238.605 0.717471 240.898 1.65467 242.593 3.33216C244.287 5.00964 245.245 7.28999 245.254 9.67176V63.3287C245.245 65.7105 244.287 67.991 242.593 69.6685C240.898 71.346 238.605 72.2831 236.218 72.2738H10.3595C7.97249 72.2831 5.6795 71.3459 3.98492 69.6685C2.29034 67.991 1.33298 65.7106 1.32349 63.3289V9.67191C1.33297 7.29014 2.29033 5.00966 3.98492 3.33216C5.67951 1.65465 7.97255 0.717471 10.3596 0.726877Z" fill="#231F20"/>
<path d="M236.907 1.66239C238.932 1.6657 240.873 2.47017 242.304 3.8995C243.735 5.32883 244.54 7.26619 244.542 9.28673V63.7132C244.54 65.7332 243.735 67.67 242.304 69.0983C240.872 70.5266 238.931 71.3299 236.907 71.3315H9.61861C7.59359 71.3299 5.65189 70.5269 4.2194 69.0987C2.78691 67.6706 1.98059 65.7337 1.97729 63.7132V9.28673C1.98061 7.26562 2.78673 5.32833 4.21905 3.89919C5.65137 2.47005 7.59306 1.66569 9.61865 1.66239H236.907ZM236.907 0.213777H9.61865C7.209 0.220369 4.89995 1.17835 3.19606 2.87846C1.49217 4.57858 0.531997 6.88257 0.525391 9.28689V63.7135C0.531997 66.1178 1.49218 68.4218 3.19606 70.1219C4.89995 71.8221 7.209 72.7802 9.61865 72.7868H236.907C239.316 72.7802 241.625 71.8222 243.329 70.1221C245.033 68.422 245.993 66.118 246 63.7137V9.2872C245.993 6.8828 245.033 4.57866 243.329 2.87846C241.625 1.17827 239.316 0.220189 236.907 0.213623V0.213777Z" fill="#AEAAA8"/>
<path d="M86.8274 17.7919H81.1944V19.4835H85.1559C85.0883 20.1866 84.7913 20.848 84.3107 21.3665C83.5434 22.1126 82.5151 22.5314 81.4438 22.5338C81.423 22.5338 81.4022 22.5332 81.382 22.5332C80.294 22.5148 79.2578 22.0662 78.5009 21.2861C77.744 20.506 77.3284 19.458 77.3453 18.3724L77.3422 18.2078C77.348 17.1408 77.777 16.1197 78.5355 15.3676C79.2939 14.6155 80.32 14.1937 81.3893 14.1946H81.404C81.9393 14.1719 82.4729 14.2707 82.9646 14.4832C83.4562 14.6956 83.8933 15.0165 84.2429 15.4216L84.3755 15.577L85.5874 14.3526L85.4731 14.2214C84.9882 13.6668 84.38 13.2331 83.6971 12.9549C82.9766 12.6435 82.1996 12.4833 81.4144 12.4841H81.3172C79.7743 12.5031 78.3019 13.1319 77.223 14.2326C76.1441 15.3332 75.5467 16.8159 75.562 18.3554L75.7494 18.3536L75.5612 18.423C75.5628 19.9615 76.1756 21.4366 77.2653 22.525C78.355 23.6135 79.8327 24.2264 81.3746 24.2296C81.4443 24.2321 81.5139 24.2333 81.583 24.2333C82.3197 24.2331 83.0488 24.0848 83.7269 23.7974C84.405 23.5101 85.0181 23.0894 85.5298 22.5605C86.006 22.059 86.3757 21.4668 86.6168 20.8192C86.858 20.1716 86.9656 19.482 86.9331 18.792C86.9319 18.5081 86.9057 18.2249 86.8548 17.9456L86.8274 17.7919Z" fill="white"/>
<path d="M95.3137 14.4406L95.3188 12.7266H88.579V23.9868H95.3137V22.2728H90.3526V19.1986H94.8222V17.5098H90.3526V14.4406H95.3137Z" fill="white"/>
<path d="M96.4032 14.4406H99.4487V23.9868H101.227L101.238 14.4406H104.288V12.7266H96.4032V14.4406Z" fill="white"/>
<path d="M111.103 12.7275H109.325V23.9858H111.103V12.7275Z" fill="white"/>
<path d="M112.492 14.4406H115.538V23.9868H117.317L117.327 14.4406H120.377V12.7266H112.492V14.4406Z" fill="white"/>
<path d="M126.239 14.1881C125.698 14.736 125.272 15.3864 124.986 16.1011C124.701 16.8157 124.562 17.5802 124.577 18.3494C124.56 19.1213 124.699 19.8885 124.985 20.606C125.27 21.3234 125.697 21.9766 126.24 22.5266C126.783 23.067 127.427 23.4952 128.136 23.787C128.845 24.0787 129.605 24.2281 130.372 24.2267C131.138 24.2282 131.898 24.0787 132.607 23.787C133.316 23.4952 133.961 23.067 134.504 22.5266L134.505 22.5254C135.046 21.975 135.472 21.3223 135.758 20.6055C136.043 19.8887 136.182 19.1224 136.167 18.3513C136.18 17.5751 136.036 16.8042 135.744 16.0844C135.453 15.3646 135.02 14.7104 134.47 14.1607C133.374 13.0771 131.892 12.4714 130.349 12.4766C128.806 12.4818 127.328 13.0973 126.239 14.1881ZM134.359 18.3659C134.375 18.9154 134.281 19.4625 134.082 19.975C133.883 20.4876 133.583 20.9551 133.199 21.3497C132.448 22.0967 131.43 22.5162 130.369 22.5163C129.309 22.5164 128.291 22.0972 127.539 21.3503C127.155 20.9536 126.855 20.4836 126.657 19.9687C126.459 19.4538 126.366 18.9044 126.385 18.3531C126.367 17.8042 126.46 17.2572 126.658 16.7447C126.856 16.2322 127.155 15.7647 127.538 15.37C128.29 14.6234 129.307 14.2041 130.367 14.2037C131.428 14.2034 132.445 14.622 133.197 15.3681C133.582 15.7646 133.884 16.2343 134.083 16.7493C134.283 17.2643 134.376 17.8141 134.359 18.3659Z" fill="white"/>
<path d="M144.767 12.7266V19.2896L144.813 20.8014L139.811 12.8176L139.755 12.7266H137.759V23.9868H139.522V17.0143L139.477 15.5024L144.772 23.9868H146.531V12.7266H144.767Z" fill="white"/>
<path d="M124.439 39.6785C122.388 39.6851 120.423 40.5047 118.977 41.9568C117.531 43.4089 116.722 45.3747 116.729 47.4217C116.732 48.4352 116.935 49.4382 117.327 50.3734C117.719 51.3085 118.292 52.1575 119.012 52.8719C119.733 53.5862 120.587 54.152 121.527 54.5368C122.467 54.9217 123.473 55.118 124.489 55.1147C126.536 55.1081 128.497 54.292 129.943 52.8453C131.388 51.3986 132.199 49.4393 132.199 47.3967C132.214 46.398 132.032 45.4062 131.663 44.4779C131.294 43.5495 130.745 42.7027 130.047 41.986C129.35 41.2693 128.519 40.6965 127.6 40.3005C126.681 39.9046 125.692 39.6931 124.691 39.6782C124.607 39.6769 124.523 39.677 124.439 39.6785ZM124.439 52.0738C123.852 52.0622 123.272 51.9352 122.734 51.7001C122.195 51.465 121.709 51.1265 121.302 50.7037C120.894 50.281 120.575 49.7823 120.361 49.2363C120.147 48.6903 120.042 48.1076 120.054 47.5214L120.058 47.3967C120.027 46.8 120.117 46.2032 120.323 45.6419C120.528 45.0807 120.844 44.5666 121.253 44.1301C121.662 43.6935 122.155 43.3436 122.702 43.1013C123.25 42.859 123.84 42.7293 124.439 42.7197C125.038 42.7272 125.63 42.8555 126.178 43.0971C126.727 43.3387 127.22 43.6886 127.63 44.1256C128.039 44.5625 128.355 45.0776 128.56 45.6398C128.764 46.2019 128.853 46.7995 128.82 47.3967C128.848 47.9823 128.76 48.5679 128.561 49.1196C128.363 49.6714 128.057 50.1788 127.662 50.6127C127.267 51.0466 126.79 51.3986 126.258 51.6485C125.727 51.8985 125.151 52.0417 124.564 52.0696L124.439 52.0738ZM107.485 39.6785C105.434 39.6851 103.469 40.5047 102.023 41.9568C100.577 43.4089 99.7686 45.3747 99.7752 47.4217C99.7819 49.4686 100.603 51.4291 102.058 52.8719C103.514 54.3146 105.484 55.1213 107.535 55.1147C109.583 55.1081 111.544 54.292 112.989 52.8453C114.434 51.3986 115.246 49.4393 115.246 47.3967C115.276 45.3798 114.502 43.4335 113.094 41.986C111.686 40.5385 109.759 39.7084 107.738 39.6782C107.654 39.6769 107.57 39.677 107.485 39.6785ZM107.485 52.0738C106.898 52.0622 106.318 51.9352 105.78 51.7001C105.242 51.465 104.755 51.1265 104.348 50.7037C103.941 50.281 103.621 49.7823 103.407 49.2363C103.193 48.6903 103.089 48.1076 103.1 47.5214L103.105 47.3967C103.074 46.8 103.164 46.2033 103.369 45.6421C103.574 45.0808 103.891 44.5666 104.3 44.1301C104.709 43.6935 105.201 43.3436 105.749 43.1013C106.296 42.859 106.887 42.7293 107.485 42.7197C108.085 42.7272 108.676 42.8555 109.225 43.0971C109.773 43.3387 110.267 43.6885 110.676 44.1254C111.085 44.5624 111.402 45.0774 111.606 45.6396C111.811 46.2018 111.899 46.7995 111.866 47.3967C111.894 47.9823 111.806 48.5679 111.608 49.1196C111.409 49.6714 111.103 50.1788 110.708 50.6127C110.313 51.0466 109.836 51.3986 109.304 51.6485C108.773 51.8985 108.197 52.0417 107.61 52.0696L107.485 52.0738ZM87.34 42.0514V45.3236H95.1878C95.0727 46.8579 94.4445 48.3093 93.4041 49.4449C92.6177 50.2457 91.6716 50.8729 90.627 51.2859C89.5824 51.699 88.4625 51.8888 87.3398 51.8428C85.0244 51.647 82.8818 50.5414 81.3833 48.7694C79.8848 46.9973 79.1532 44.7038 79.3494 42.3935C79.524 40.3374 80.4219 38.4092 81.8843 36.9501C83.3466 35.491 85.2791 34.595 87.3398 34.4207C89.5437 34.3918 91.6696 35.2336 93.2539 36.7625L95.5695 34.4518C94.4874 33.3819 93.2021 32.5386 91.7888 31.9713C90.3756 31.4041 88.863 31.1243 87.3399 31.1484C84.1548 31.1479 81.0999 32.4099 78.8472 34.6567C76.5946 36.9035 75.3287 39.9511 75.328 43.1292C75.3277 44.7029 75.638 46.2612 76.2413 47.7152C76.8446 49.1691 77.7289 50.4902 78.8439 51.6032C79.9589 52.7161 81.2827 53.599 82.7396 54.2015C84.1966 54.804 85.7582 55.1142 87.3354 55.1145H87.3399C88.8945 55.1785 90.445 54.912 91.8886 54.3328C93.3322 53.7537 94.636 52.875 95.7135 51.755C97.601 49.656 98.6169 46.9187 98.5548 44.0993C98.5632 43.4126 98.5045 42.7267 98.3795 42.0513L87.34 42.0514ZM169.724 44.593C169.261 43.1942 168.377 41.972 167.192 41.0935C166.006 40.215 164.578 39.7231 163.103 39.6848C162.108 39.6882 161.124 39.8935 160.211 40.2882C159.299 40.6829 158.476 41.2588 157.793 41.9807C157.111 42.7027 156.583 43.5557 156.241 44.4879C155.899 45.42 155.751 46.4118 155.805 47.4029C155.764 49.4063 156.521 51.3443 157.912 52.7904C159.302 54.2365 161.211 55.0723 163.219 55.1139C163.308 55.1157 163.396 55.1161 163.484 55.1148C164.758 55.1215 166.014 54.813 167.138 54.2169C168.263 53.6209 169.223 52.7558 169.93 51.6992L167.289 49.9446C166.898 50.6014 166.34 51.1444 165.672 51.5191C165.005 51.8938 164.25 52.0872 163.484 52.0801C162.695 52.1106 161.915 51.9037 161.245 51.4861C160.576 51.0685 160.048 50.4596 159.729 49.7386L170.068 45.4736L169.724 44.593ZM159.178 47.1657C159.11 46.0449 159.49 44.9427 160.235 44.1015C160.98 43.2604 162.03 42.7492 163.154 42.6804L163.24 42.6759C163.826 42.6378 164.41 42.7726 164.92 43.0635C165.43 43.3544 165.842 43.7887 166.106 44.312L159.178 47.1657ZM150.767 54.659H154.166V31.9604H150.767V54.659ZM145.204 41.4271H145.091C144.575 40.8673 143.945 40.4239 143.244 40.1266C142.542 39.8294 141.785 39.6851 141.023 39.7035C139.02 39.7759 137.124 40.6256 135.739 42.0718C134.354 43.518 133.589 45.4464 133.607 47.4467C133.595 49.4398 134.363 51.3589 135.749 52.7949C137.134 54.2308 139.027 55.0701 141.023 55.1335C141.79 55.1507 142.552 55.0003 143.255 54.6928C143.957 54.3854 144.584 53.9284 145.091 53.3538H145.21V54.4652C145.21 57.4188 143.627 58.9987 141.08 58.9987C140.23 58.9771 139.406 58.7045 138.712 58.2154C138.018 57.7263 137.485 57.0427 137.181 56.2511L134.227 57.5001C134.785 58.8607 135.739 60.0229 136.967 60.8366C138.194 61.6503 139.638 62.0781 141.111 62.0647C142.152 62.1165 143.192 61.938 144.156 61.5418C145.121 61.1456 145.985 60.5415 146.688 59.7728C147.39 59.0042 147.914 58.09 148.221 57.0958C148.528 56.1016 148.611 55.0519 148.464 54.0219V40.1779H145.241L145.204 41.4271ZM141.336 52.0738C140.745 52.0564 140.164 51.9215 139.626 51.6771C139.088 51.4327 138.605 51.0838 138.204 50.6505C137.803 50.2173 137.492 49.7085 137.291 49.1541C137.09 48.5996 137.001 48.0107 137.03 47.4217C137 46.83 137.088 46.2382 137.289 45.6807C137.489 45.1231 137.799 44.6108 138.199 44.1734C138.6 43.736 139.083 43.3822 139.622 43.1326C140.16 42.883 140.743 42.7427 141.336 42.7194C141.921 42.7453 142.495 42.8891 143.022 43.142C143.55 43.395 144.021 43.7518 144.407 44.1912C144.793 44.6305 145.086 45.1431 145.268 45.6983C145.45 46.2534 145.518 46.8397 145.467 47.4217C145.512 48 145.44 48.5814 145.256 49.1314C145.071 49.6814 144.777 50.1886 144.391 50.6227C144.006 51.0569 143.537 51.4091 143.012 51.6584C142.487 51.9077 141.917 52.0491 141.336 52.0738H141.336ZM185.67 31.9605H177.534V54.6402H180.926V46.0479H185.664C186.619 46.0814 187.571 45.9249 188.465 45.5878C189.359 45.2506 190.177 44.7395 190.871 44.0841C191.566 43.4286 192.122 42.6419 192.509 41.7698C192.895 40.8977 193.104 39.9576 193.124 39.0042C193.102 38.0493 192.891 37.1082 192.502 36.2355C192.113 35.3628 191.554 34.576 190.857 33.9206C190.161 33.2653 189.341 32.7545 188.445 32.418C187.549 32.0815 186.595 31.9261 185.639 31.9605H185.67ZM185.757 42.8944H180.932V35.1201H185.757C186.269 35.0996 186.78 35.18 187.26 35.3565C187.741 35.5329 188.182 35.802 188.558 36.1485C188.934 36.495 189.238 36.912 189.453 37.3758C189.668 37.8396 189.789 38.3411 189.809 38.8516C189.83 39.3621 189.749 39.8717 189.573 40.3511C189.396 40.8306 189.126 41.2706 188.779 41.6461C188.431 42.0215 188.013 42.3249 187.549 42.5392C187.084 42.7534 186.581 42.8743 186.07 42.8947C185.966 42.8987 185.862 42.8985 185.758 42.8944H185.757ZM206.729 39.6349C205.49 39.5623 204.257 39.8521 203.181 40.4689C202.105 41.0856 201.232 42.0024 200.671 43.1067L203.687 44.3556C203.98 43.8092 204.426 43.3596 204.971 43.0613C205.515 42.7631 206.135 42.6292 206.754 42.6759C207.614 42.5924 208.473 42.8523 209.141 43.3988C209.81 43.9453 210.234 44.7341 210.321 45.5921V45.8231C209.233 45.2465 208.018 44.9462 206.786 44.9488C203.537 44.9488 200.233 46.7286 200.233 50.0567C200.264 50.7573 200.436 51.4445 200.737 52.0777C201.039 52.7109 201.466 53.2772 201.991 53.7431C202.516 54.2089 203.13 54.5648 203.795 54.7897C204.461 55.0146 205.165 55.1039 205.866 55.0524C206.716 55.1028 207.564 54.9256 208.322 54.5391C209.08 54.1527 209.721 53.5709 210.178 52.8543H210.297V54.6027H213.57V45.9106C213.587 45.0312 213.417 44.1581 213.07 43.3496C212.723 42.5411 212.207 41.8158 211.557 41.2219C210.906 40.628 210.137 40.1793 209.299 39.9057C208.461 39.632 207.575 39.5398 206.698 39.635L206.729 39.6349ZM206.285 52.0425C205.177 52.0425 203.625 51.4868 203.625 50.1131C203.625 48.3646 205.552 47.6965 207.223 47.6965C208.316 47.6618 209.397 47.9228 210.352 48.452C210.228 49.4415 209.746 50.3518 208.997 51.0127C208.249 51.6735 207.284 52.0396 206.285 52.0425H206.285ZM225.529 40.1095L221.642 49.9382H221.523L217.487 40.1095H213.832L219.884 53.8472L216.436 61.5217H219.971L229.303 40.1345L225.529 40.1095ZM194.97 54.6402H198.362V31.9604H194.97L194.97 54.6402Z" fill="white"/>
<path d="M19.5003 13.889C18.9058 14.605 18.6101 15.5217 18.6743 16.4492V56.5635C18.6172 57.4895 18.9198 58.4019 19.5192 59.1112L19.6505 59.2424L42.1805 36.7622V36.2312L19.6505 13.7512L19.5003 13.889Z" fill="url(#paint0_linear_6_654)"/>
<path d="M49.6714 44.2623L42.1615 36.7689V36.238L49.6714 28.7446L49.8404 28.8383L58.7271 33.8837C59.2812 34.0639 59.7639 34.4143 60.1062 34.8849C60.4485 35.3554 60.6328 35.9218 60.6328 36.5032C60.6328 37.0846 60.4485 37.6512 60.1062 38.1217C59.7639 38.5922 59.2812 38.9427 58.7271 39.1228L49.8404 44.1683L49.6714 44.2623Z" fill="url(#paint1_linear_6_654)"/>
<path d="M49.8403 44.162L42.1614 36.5L19.5002 59.1112C20.013 59.5675 20.6705 59.8288 21.3572 59.8494C22.044 59.8699 22.716 59.6484 23.2552 59.2235L49.8403 44.162Z" fill="url(#paint2_linear_6_654)"/>
<path d="M49.8403 28.8381L23.2803 13.7764C22.741 13.3517 22.069 13.1302 21.3823 13.1507C20.6955 13.1713 20.038 13.4327 19.5253 13.8889L42.1616 36.4999L49.8403 28.8381Z" fill="url(#paint3_linear_6_654)"/>
<path opacity="0.2" d="M49.6714 43.9934L23.2801 58.9802C22.7574 59.3797 22.1173 59.5961 21.4589 59.5961C20.8005 59.5961 20.1605 59.3797 19.6377 58.9802L19.5001 59.1112L19.6315 59.2424C20.158 59.6331 20.7966 59.844 21.4527 59.844C22.1088 59.844 22.7474 59.6331 23.2738 59.2424L49.8401 44.1621L49.6714 43.9934Z" fill="#141410"/>
<path opacity="0.12" d="M19.5003 58.849C18.9088 58.1362 18.6133 57.2246 18.6742 56.3013V56.5636C18.6172 57.4896 18.9198 58.402 19.5191 59.1113L19.6568 58.9802L19.5003 58.849Z" fill="#141410"/>
<path opacity="0.12" d="M58.7272 38.8542L49.6716 43.9933L49.8405 44.162L58.7273 39.1227C59.2453 38.891 59.6922 38.526 60.0221 38.0651C60.3521 37.6042 60.5532 37.064 60.6048 36.5C60.5095 37.016 60.2883 37.5007 59.9609 37.9113C59.6334 38.3218 59.2097 38.6457 58.7272 38.8542Z" fill="#141410"/>
<path opacity="0.25" d="M23.2803 14.0451L58.7271 34.1459C59.2083 34.3565 59.6308 34.6808 59.9579 35.091C60.2851 35.5012 60.5071 35.9848 60.6047 36.5C60.5504 35.9375 60.3481 35.3994 60.0185 34.9399C59.6888 34.4805 59.2433 34.1161 58.7271 33.8836L23.2803 13.7765C20.7394 12.3405 18.674 13.533 18.674 16.4492V16.7177C18.6742 13.8015 20.7394 12.6026 23.2803 14.0451Z" fill="white"/>
<defs>
<linearGradient id="paint0_linear_6_654" x1="40.1698" y1="16.0168" x2="9.72198" y2="46.532" gradientUnits="userSpaceOnUse">
<stop stop-color="#5096D1"/>
<stop offset="0.01" stop-color="#5098D2"/>
<stop offset="0.26" stop-color="#59B7E7"/>
<stop offset="0.51" stop-color="#5BC1EE"/>
<stop offset="0.76" stop-color="#6AC4E7"/>
<stop offset="1" stop-color="#70C6E5"/>
</linearGradient>
<linearGradient id="paint1_linear_6_654" x1="62.044" y1="36.5033" x2="18.0485" y2="36.5033" gradientUnits="userSpaceOnUse">
<stop stop-color="#FDDD00"/>
<stop offset="0.41" stop-color="#F7BA16"/>
<stop offset="0.78" stop-color="#F3A31D"/>
<stop offset="1" stop-color="#F1991F"/>
</linearGradient>
<linearGradient id="paint2_linear_6_654" x1="45.666" y1="40.665" x2="4.37799" y2="82.0446" gradientUnits="userSpaceOnUse">
<stop stop-color="#E43340"/>
<stop offset="1" stop-color="#C21E5C"/>
</linearGradient>
<linearGradient id="paint3_linear_6_654" x1="13.7873" y1="0.537445" x2="32.227" y2="19.0119" gradientUnits="userSpaceOnUse">
<stop stop-color="#2C986A"/>
<stop offset="0.07" stop-color="#269D66"/>
<stop offset="0.48" stop-color="#4FAF63"/>
<stop offset="0.8" stop-color="#63B35C"/>
<stop offset="1" stop-color="#6CB55C"/>
</linearGradient>
</defs>
</svg>
