<?xml version="1.0" encoding="utf-8"?>
<!-- Generator: Adobe Illustrator 26.0.1, SVG Export Plug-In . SVG Version: 6.00 Build 0)  -->
<svg version="1.1" id="Layer_1" xmlns="http://www.w3.org/2000/svg" xmlns:xlink="http://www.w3.org/1999/xlink" x="0px" y="0px"
	 viewBox="0 0 107 107" style="enable-background:new 0 0 107 107;" xml:space="preserve">
<style type="text/css">
	.st0{fill:#359F53;}
	.st1{fill:#427CEB;}
	.st2{fill:#DF4236;}
	.st3{fill:#F0B30B;}
</style>
<g>
	<g>
		<path class="st0" d="M102.9,63.6l-10-10l10-10c5.1-5.1,5.1-13.3,0-18.4c-5.5-5.6-10.2-4.7-10.2-4.7L76.4,36.9L59.8,53.5l16.6,16.6
			l16.4,16.4c0,0,4.6,0.9,10.2-4.7C108,76.8,108,68.6,102.9,63.6z"/>
		<path class="st1" d="M81.7,3.8c-5.1-5.1-13.2-5.1-18.3,0l-10,10l-9.9-10c-5.1-5-13.2-5-18.3,0C19.7,9.4,20.6,14,20.6,14l16.4,16.4
			l16.6,16.6l16.6-16.6L86.4,14C86.4,14,87.3,9.4,81.7,3.8z"/>
		<path class="st2" d="M30.6,36.9L14.2,20.4c0,0-4.6-0.9-10.2,4.7c-5,5.1-5,13.3,0,18.4l10,10l-10,10C-1,68.6-1,76.9,4,81.9
			c5.6,5.6,10.2,4.6,10.2,4.6l16.4-16.4l16.6-16.6L30.6,36.9z"/>
		<path class="st3" d="M86.4,93L70,76.5L53.5,59.9L36.9,76.5L20.6,93c0,0-0.9,4.7,4.6,10.2c5.1,5.1,13.2,5.1,18.3,0l10-10l10,10
			c5.1,5.1,13.2,5.1,18.3,0C87.3,97.6,86.4,93,86.4,93z"/>
	</g>
</g>
</svg>
