<svg width="113" height="33" viewBox="0 0 113 33" fill="none" xmlns="http://www.w3.org/2000/svg">
<g clip-path="url(#clip0)">
<path fill-rule="evenodd" clip-rule="evenodd" d="M108.35 33H4.64967C2.36261 33 0.5 31.1401 0.5 28.875V4.125C0.5 1.85162 2.36261 0 4.64967 0H108.35C110.635 0 112.5 1.85162 112.5 4.125V28.875C112.5 31.1401 110.635 33 108.35 33Z" fill="black"/>
<path fill-rule="evenodd" clip-rule="evenodd" d="M108.35 0.660411C110.269 0.660411 111.839 2.21783 111.839 4.125V28.875C111.839 30.7822 110.279 32.3396 108.35 32.3396H4.64967C2.73143 32.3396 1.16139 30.7822 1.16139 28.875V4.125C1.16139 2.21783 2.72113 0.660411 4.64967 0.660411H108.35ZM108.35 0H4.64967C2.36261 0 0.5 1.85985 0.5 4.125V28.875C0.5 31.1484 2.36261 33 4.64967 33H108.35C110.635 33 112.5 31.1484 112.5 28.875V4.125C112.5 1.85985 110.635 0 108.35 0Z" fill="#A6A6A6"/>
<path d="M59.5019 10.9163C58.754 10.9163 58.1235 10.655 57.6249 10.1406C57.1304 9.64071 56.8543 8.95149 56.8666 8.24788C56.8666 7.49694 57.1221 6.86122 57.6249 6.35717C58.1214 5.84283 58.7519 5.58154 59.4998 5.58154C60.2395 5.58154 60.87 5.84283 61.3769 6.35717C61.8796 6.87768 62.1351 7.5134 62.1351 8.24788C62.1268 9.00087 61.8714 9.63659 61.3769 10.1386C60.8803 10.657 60.2498 10.9163 59.5019 10.9163ZM37.2475 10.9163C36.516 10.9163 35.8814 10.6591 35.3622 10.1509C34.8471 9.64482 34.5854 9.00498 34.5854 8.24993C34.5854 7.49488 34.8471 6.85505 35.3622 6.34894C35.8711 5.84077 36.5057 5.5836 37.2475 5.5836C37.6101 5.5836 37.9624 5.65561 38.3004 5.80168C38.6321 5.94364 38.902 6.13703 39.1018 6.37363L39.1513 6.43329L38.5929 6.98055L38.5352 6.91265C38.22 6.53821 37.7976 6.35511 37.2392 6.35511C36.7406 6.35511 36.3059 6.53204 35.9474 6.88179C35.5868 7.2336 35.4034 7.69445 35.4034 8.25199C35.4034 8.80954 35.5868 9.27038 35.9474 9.62219C36.3059 9.97194 36.7406 10.1489 37.2392 10.1489C37.7708 10.1489 38.2179 9.97194 38.5661 9.62219C38.7722 9.41646 38.8999 9.12843 38.9453 8.76427H37.1548V7.99482H39.7138L39.7241 8.06477C39.7426 8.19439 39.7612 8.32811 39.7612 8.45156C39.7612 9.16134 39.5469 9.73535 39.1225 10.1592C38.6403 10.6612 38.0098 10.9163 37.2475 10.9163ZM66.8369 10.8072H66.0478L63.6309 6.94557L63.6515 7.64096V10.8052H62.8624V5.69264H63.7628L63.7875 5.73173L66.0601 9.36914L66.0395 8.67581V5.69264H66.8369V10.8072ZM53.5721 10.8072H52.7726V6.46209H51.386V5.69264H54.9566V6.46209H53.57V10.8072H53.5721ZM50.7349 10.8072H49.9375V5.69264H50.7349V10.8072ZM46.2535 10.8072H45.4561V6.46209H44.0695V5.69264H47.6402V6.46209H46.2535V10.8072ZM43.5647 10.799H40.507V5.69264H43.5647V6.46209H41.3065V7.86521H43.3442V8.62643H41.3065V10.0295H43.5647V10.799ZM58.21 9.61191C58.5665 9.96783 58.9992 10.1468 59.5019 10.1468C60.0191 10.1468 60.4414 9.97194 60.7938 9.61191C61.144 9.26215 61.3212 8.80336 61.3212 8.24993C61.3212 7.69651 61.144 7.23566 60.7958 6.88796C60.4394 6.53204 60.0046 6.35305 59.5039 6.35305C58.9868 6.35305 58.5644 6.52793 58.2141 6.88796C57.8639 7.23772 57.6867 7.69651 57.6867 8.24993C57.6867 8.80336 57.8618 9.26421 58.21 9.61191Z" fill="white"/>
<path fill-rule="evenodd" clip-rule="evenodd" d="M56.7925 17.9484C54.8454 17.9484 53.2672 19.4235 53.2672 21.4582C53.2672 23.4745 54.8557 24.9681 56.7925 24.9681C58.7396 24.9681 60.3179 23.4827 60.3179 21.4582C60.3179 19.4235 58.7396 17.9484 56.7925 17.9484ZM56.7925 23.5773C55.7273 23.5773 54.8104 22.6968 54.8104 21.45C54.8104 20.1847 55.7294 19.3227 56.7925 19.3227C57.8578 19.3227 58.7747 20.1847 58.7747 21.45C58.7767 22.705 57.8578 23.5773 56.7925 23.5773ZM49.101 17.9484C47.1539 17.9484 45.5756 19.4235 45.5756 21.4582C45.5756 23.4745 47.1642 24.9681 49.101 24.9681C51.0481 24.9681 52.6264 23.4827 52.6264 21.4582C52.6264 19.4235 51.046 17.9484 49.101 17.9484ZM49.101 23.5773C48.0358 23.5773 47.1189 22.6968 47.1189 21.45C47.1189 20.1847 48.0378 19.3227 49.101 19.3227C50.1662 19.3227 51.0831 20.1847 51.0831 21.45C51.0831 22.705 50.1662 23.5773 49.101 23.5773ZM39.9486 19.0203V20.5057H43.5193C43.4101 21.3389 43.134 21.9541 42.7116 22.3758C42.1883 22.8984 41.3806 23.4662 39.9569 23.4662C37.7625 23.4662 36.0462 21.6969 36.0462 19.5058C36.0462 17.3147 37.7625 15.5454 39.9569 15.5454C41.1416 15.5454 42.0049 16.0124 42.6457 16.6091L43.7006 15.5557C42.8105 14.7039 41.6258 14.0518 39.9651 14.0518C36.9548 14.0518 34.4288 16.5 34.4288 19.4976C34.4288 22.5034 36.9528 24.9434 39.9651 24.9434C41.5908 24.9434 42.8105 24.4126 43.7748 23.4127C44.7576 22.4314 45.0688 21.0468 45.0688 19.9296C45.0688 19.5819 45.042 19.2692 44.9864 19.0038H39.9466C39.9486 19.0018 39.9486 19.0203 39.9486 19.0203ZM77.3843 20.1765C77.0897 19.3885 76.1996 17.9402 74.3741 17.9402C72.565 17.9402 71.0609 19.3618 71.0609 21.45C71.0609 23.421 72.5485 24.9599 74.5492 24.9599C76.1563 24.9599 77.0918 23.9785 77.4771 23.4024L76.2841 22.6042C75.8885 23.1905 75.3384 23.5753 74.5575 23.5753C73.7683 23.5753 73.2161 23.2173 72.8494 22.5116L77.5492 20.5674C77.5492 20.5695 77.3843 20.1765 77.3843 20.1765ZM72.5918 21.3492C72.5547 19.9934 73.6467 19.3042 74.4276 19.3042C75.0437 19.3042 75.5568 19.6066 75.7319 20.0469L72.5918 21.3492ZM68.7739 24.75H70.3171V14.4385H68.7739V24.75ZM66.2396 18.7281H66.1839C65.8357 18.3146 65.1743 17.9402 64.3295 17.9402C62.5761 17.9402 60.9608 19.4811 60.9608 21.4603C60.9608 23.4312 62.5679 24.9537 64.3295 24.9537C65.164 24.9537 65.8357 24.5772 66.1839 24.1554H66.2396V24.6595C66.2396 25.9988 65.5225 26.721 64.3666 26.721C63.4209 26.721 62.8337 26.042 62.5947 25.4742L61.2533 26.0338C61.6386 26.9596 62.6668 28.1056 64.3646 28.1056C66.1736 28.1056 67.7066 27.0419 67.7066 24.4476V18.15H66.2478V18.7281C66.2499 18.7281 66.2396 18.7281 66.2396 18.7281ZM64.4676 23.5773C63.4024 23.5773 62.5123 22.6885 62.5123 21.4603C62.5123 20.2218 63.4024 19.3248 64.4676 19.3248C65.5225 19.3248 66.3405 20.2321 66.3405 21.4603C66.3508 22.6885 65.5246 23.5773 64.4676 23.5773ZM84.6102 14.4385H80.92V24.75H82.4633V20.8451H84.6123C86.3204 20.8451 87.9996 19.6087 87.9996 17.646C87.9996 15.6832 86.3266 14.4385 84.6102 14.4385ZM84.6556 19.405H82.4612V15.8663H84.6556C85.8114 15.8663 86.4646 16.8189 86.4646 17.6357C86.4646 18.4442 85.8032 19.405 84.6556 19.405ZM94.185 17.9299C93.0641 17.9299 91.9082 18.4257 91.4302 19.5058L92.7983 20.0736C93.093 19.5058 93.6328 19.3124 94.2035 19.3124C95.003 19.3124 95.8107 19.7897 95.8292 20.6415V20.7505C95.5531 20.5942 94.9473 20.3555 94.2221 20.3555C92.7448 20.3555 91.2468 21.162 91.2468 22.6741C91.2468 24.0587 92.4584 24.9475 93.8079 24.9475C94.8443 24.9475 95.4151 24.4805 95.7715 23.9394H95.8271V24.7377H97.3148V20.7875C97.3148 18.9483 95.9466 17.9299 94.185 17.9299ZM93.9913 23.5773C93.4865 23.5773 92.7798 23.3304 92.7798 22.6968C92.7798 21.8985 93.6616 21.5961 94.4137 21.5961C95.0936 21.5961 95.4151 21.7422 95.8189 21.9438C95.7076 22.8696 94.9247 23.5691 93.9913 23.5773ZM102.742 18.15L100.97 22.6227H100.914L99.0785 18.15H97.4178L100.173 24.4023L98.6025 27.8772H100.21L104.448 18.15H102.742ZM88.8506 24.75H90.3938V14.4385H88.8506V24.75Z" fill="white"/>
<path fill-rule="evenodd" clip-rule="evenodd" d="M9.12083 6.21528C8.88182 6.47245 8.74377 6.8654 8.74377 7.37974V25.6223C8.74377 26.1367 8.88182 26.5296 9.12907 26.7765L9.19294 26.832L19.4291 16.6111V16.3827L9.1847 6.15973L9.12083 6.21528Z" fill="url(#paint0_linear)"/>
<path fill-rule="evenodd" clip-rule="evenodd" d="M22.8348 20.0284L19.4207 16.6194V16.3807L22.8348 12.9717L22.909 13.0169L26.9474 15.3088C28.1033 15.959 28.1033 17.0329 26.9474 17.6913L22.909 19.9832L22.8348 20.0284Z" fill="url(#paint1_linear)"/>
<path fill-rule="evenodd" clip-rule="evenodd" d="M22.909 19.9831L19.4207 16.5L9.12073 26.7847C9.49778 27.188 10.1303 27.2332 10.8371 26.8403L22.909 19.9831Z" fill="url(#paint2_linear)"/>
<path fill-rule="evenodd" clip-rule="evenodd" d="M22.909 13.0169L10.8371 6.17001C10.1303 5.76677 9.49572 5.82232 9.12073 6.22556L19.4207 16.5L22.909 13.0169Z" fill="url(#paint3_linear)"/>
<path opacity="0.2" fill-rule="evenodd" clip-rule="evenodd" d="M22.8349 19.9091L10.8453 26.7107C10.1757 27.0954 9.57814 27.0686 9.19284 26.7189L9.12897 26.7827L9.19284 26.8382C9.57814 27.1859 10.1757 27.2147 10.8453 26.83L22.9173 19.9831L22.8349 19.9091Z" fill="black"/>
<path opacity="0.12" fill-rule="evenodd" clip-rule="evenodd" d="M26.9475 17.5719L22.8246 19.909L22.8988 19.9831L26.9372 17.6912C27.5161 17.362 27.8005 16.93 27.8005 16.5C27.7655 16.895 27.4708 17.2695 26.9475 17.5719Z" fill="black"/>
<path opacity="0.25" fill-rule="evenodd" clip-rule="evenodd" d="M10.8372 6.28933L26.9475 15.4281C27.4709 15.7223 27.7655 16.107 27.8108 16.5C27.8108 16.07 27.5265 15.638 26.9475 15.3088L10.8372 6.17C9.68126 5.50959 8.74377 6.06096 8.74377 7.37973V7.49905C8.74377 6.17823 9.68126 5.63715 10.8372 6.28933Z" fill="white"/>
</g>
<defs>
<linearGradient id="paint0_linear" x1="18.5109" y1="7.18292" x2="2.11762" y2="11.5574" gradientUnits="userSpaceOnUse">
<stop stop-color="#00A0FF"/>
<stop offset="0.00657" stop-color="#00A1FF"/>
<stop offset="0.2601" stop-color="#00BEFF"/>
<stop offset="0.5122" stop-color="#00D2FF"/>
<stop offset="0.7604" stop-color="#00DFFF"/>
<stop offset="1" stop-color="#00E3FF"/>
</linearGradient>
<linearGradient id="paint1_linear" x1="28.4548" y1="16.5001" x2="8.46259" y2="16.5001" gradientUnits="userSpaceOnUse">
<stop stop-color="#FFE000"/>
<stop offset="0.4087" stop-color="#FFBD00"/>
<stop offset="0.7754" stop-color="#FFA500"/>
<stop offset="1" stop-color="#FF9C00"/>
</linearGradient>
<linearGradient id="paint2_linear" x1="21.0122" y1="18.3953" x2="7.87806" y2="40.5341" gradientUnits="userSpaceOnUse">
<stop stop-color="#FF3A44"/>
<stop offset="1" stop-color="#C31162"/>
</linearGradient>
<linearGradient id="paint3_linear" x1="6.52707" y1="0.147499" x2="12.3867" y2="10.035" gradientUnits="userSpaceOnUse">
<stop stop-color="#32A071"/>
<stop offset="0.0685" stop-color="#2DA771"/>
<stop offset="0.4762" stop-color="#15CF74"/>
<stop offset="0.8009" stop-color="#06E775"/>
<stop offset="1" stop-color="#00F076"/>
</linearGradient>
<clipPath id="clip0">
<rect width="112" height="33" fill="white" transform="translate(0.5)"/>
</clipPath>
</defs>
</svg>
